<svg width="99" height="47" viewBox="0 0 99 47" fill="none" xmlns="http://www.w3.org/2000/svg">
<path d="M36.3756 21.6731C37.2518 21.6731 37.9676 22.6871 37.9676 23.9545L34.7295 24.3529C34.8188 22.6146 35.3553 21.6731 36.3756 21.6731ZM28.6816 6.12025C29.5584 6.12025 30.2742 7.13354 30.2742 8.40156L27.0354 8.79933C27.1247 7.06167 27.662 6.12025 28.6816 6.12025ZM65.2358 21.6731C66.1126 21.6731 66.8278 22.6871 66.8278 23.9545L63.5897 24.3529C63.679 22.6146 64.2155 21.6731 65.2358 21.6731ZM90.2131 33.0619H98.4436V31.505H90.2131V33.0619ZM74.9873 22.542C75.1835 22.4701 75.4163 22.4153 75.8818 22.4153C77.6706 22.4153 78.8878 23.6108 78.8878 26.2721C78.8878 28.4808 77.6889 29.9836 75.9535 29.9836C75.6666 29.9836 75.327 29.9296 74.9873 29.8207V22.542ZM48.274 23.6286H50.51V20.7132C50.0811 20.5325 49.7949 20.4599 49.3828 20.4599C48.6853 20.4599 47.8443 20.931 46.9675 21.6369L46.3234 22.1442V20.4599H45.8586L41.4392 21.365V22.0531L42.9242 22.5064V29.6222L41.4392 30.1651V30.7806H47.9878V30.1651L46.3234 29.6222V22.9405C46.753 22.7775 47.5047 22.6509 47.6833 22.6509L48.274 23.6286ZM56.5938 20.4599C53.7847 20.4599 50.7069 22.2346 50.7069 26.1995C50.7069 29.4948 52.872 31.0524 55.2156 31.0524C56.0215 31.0524 56.9518 30.9435 58.311 30.3643L59.9571 29.6577L59.7251 29.0059C59.313 29.1689 58.7406 29.2777 57.9355 29.2777C55.717 29.2777 54.035 27.9379 54.035 24.9144C54.035 22.8138 55.2339 21.6731 56.3252 21.6731C56.4328 21.6731 56.558 21.6909 56.6656 21.7457L57.6493 23.6286H59.7068V21.0576C58.8841 20.7495 57.7569 20.4599 56.5938 20.4599ZM87.0467 18.8489H86.2233L82.3411 21.1117V21.8724L83.6469 21.999V29.1689C83.6469 30.4547 84.6489 31.0524 86.0622 31.0524C86.7246 31.0524 87.9587 30.8347 88.7821 30.5814L90.2131 30.1288L90.0879 29.4592C89.8559 29.5133 89.4438 29.5311 89.2117 29.5311C87.9053 29.5311 87.0467 29.0422 87.0467 27.4127V22.1079L90.1062 22.2709V20.7317H87.0467V18.8489ZM28.2168 18.8489H27.3934L23.5105 21.1117V21.8724L24.8169 21.999V29.1689C24.8169 30.4547 25.819 31.0524 27.2323 31.0524C27.8947 31.0524 29.1288 30.8347 29.9522 30.5814L31.3831 30.1288L31.258 29.4592C31.0252 29.5133 30.6139 29.5311 30.3811 29.5311C29.0753 29.5311 28.2168 29.0422 28.2168 27.4127V22.1079L31.2763 22.2709V20.7317H28.2168V18.8489ZM41.224 25.1136V24.824C41.224 23.2664 40.1861 20.4599 36.6977 20.4599C34.0495 20.4599 31.3831 22.2346 31.3831 26.1995C31.3831 29.4407 33.7275 31.0524 36.2856 31.0524C37.0373 31.0524 38.1286 30.9258 39.3993 30.3643L40.9912 29.6577L40.7592 29.0059C40.3471 29.1689 39.7747 29.2777 38.9338 29.2777C36.9656 29.2777 34.8005 28.1193 34.7112 25.1136H41.224ZM70.0848 25.1136V24.824C70.0848 23.2664 69.047 20.4599 65.5578 20.4599C62.9097 20.4599 60.244 22.2346 60.244 26.1995C60.244 29.4407 62.5877 31.0524 65.1465 31.0524C65.8975 31.0524 66.9888 30.9258 68.2594 30.3643L69.8521 29.6577L69.6194 29.0059C69.208 29.1689 68.6349 29.2777 67.7939 29.2777C65.8265 29.2777 63.6614 28.1193 63.5714 25.1136H70.0848ZM33.5306 9.56001V9.2704C33.5306 7.71347 32.4927 4.90702 29.0036 4.90702C26.3555 4.90702 23.6898 6.68098 23.6898 10.6466C23.6898 13.8878 26.0334 15.4988 28.5923 15.4988C29.3439 15.4988 30.4353 15.3722 31.7052 14.8107L33.2979 14.1048L33.0651 13.453C32.6538 13.616 32.0814 13.7249 31.2404 13.7249C29.2722 13.7249 27.1072 12.5657 27.0179 9.56001H33.5306ZM4.527 18.2149V29.4044L2.79158 30.0747V30.7806H10.4315V30.0747L8.69609 29.4044V18.2149L10.4315 17.5446V16.8387H2.79158V17.5446L4.527 18.2149ZM22.3474 29.6222V24.0085C22.3474 21.9265 21.5781 20.4599 19.5031 20.4599C18.6438 20.4599 17.9997 20.7317 17.1587 21.1117L15.6378 21.782V20.4599H15.173L10.7536 21.365V22.0531L12.2387 22.5064V29.6222L10.7536 30.1651V30.7806H16.9443V30.1651L15.6378 29.6222V22.5605C15.9598 22.4701 16.5146 22.4153 16.9267 22.4153C18.0356 22.4153 18.9483 23.0308 18.9483 24.8781V29.6222L17.6418 30.1651V30.7806H23.8325V30.1651L22.3474 29.6222ZM74.9873 20.4599H74.5218L70.1024 21.365V22.0531L71.5875 22.5064V33.6055L70.1024 34.1485V34.764H76.8296V34.1485L74.9873 33.6055V31.0524H75.6849C79.8716 31.0524 82.2152 28.4808 82.2152 24.9144C82.2152 21.8539 80.1043 20.4599 78.5299 20.4599C77.9034 20.4599 76.8121 20.8406 75.81 21.3472L75.1301 21.6909H74.9873V20.4599ZM22.1688 14.0685V8.45564C22.1688 6.37358 21.3995 4.90702 19.3238 4.90702C18.4652 4.90702 17.8211 5.17813 16.9801 5.55882L15.4592 6.22842V0H14.9937L11.5404 1.28582H0V4.78036H1.62854L2.29022 2.62571H4.527V13.8515L2.79158 14.5211V15.2277H10.2522V14.5211L8.69609 13.8515V2.62571H12.0593V14.0685L10.7536 14.6115V15.2277H16.7657V14.6115L15.4592 14.0685V7.02538C15.7812 6.93501 16.336 6.86243 16.7474 6.86243C17.857 6.86243 18.769 7.47794 18.769 9.32448V14.0685L17.4632 14.6115V15.2277H23.6539V14.6115L22.1688 14.0685Z" fill="white"/>
<path d="M15.7861 35.5288C15.7861 33.7499 14.2251 32.3908 10.5545 32.3908H2.81265V33.1024L4.54948 33.7713V44.9786L2.81265 45.6546V46.3661H10.1959C14.3587 46.3661 16.3065 44.8078 16.3065 42.303C16.3065 40.1683 14.7454 39.0583 12.4883 38.674C14.4079 38.368 15.8072 37.5141 15.8072 35.536L15.7861 35.5288ZM27.1071 39.1935H29.1674L30.0815 37.4501C30.2808 37.3719 30.4938 37.3356 30.7074 37.3434C31.6918 37.3434 32.0715 37.7774 32.0715 38.9729V40.6593L30.1378 40.9653C27.522 41.3993 26.3547 42.3102 26.3547 44.0108C26.3462 44.3653 26.4107 44.7176 26.5441 45.0455C26.6774 45.3734 26.8768 45.6695 27.1295 45.9152C27.3821 46.1608 27.6826 46.3506 28.0116 46.4723C28.3407 46.594 28.6912 46.6451 29.0409 46.6223C30.181 46.5583 31.2588 46.075 32.0715 45.2632H32.2473C32.2461 45.4475 32.2821 45.6301 32.3532 45.7998C32.4243 45.9695 32.5289 46.1226 32.6606 46.2499C32.7923 46.3772 32.9483 46.4759 33.1191 46.5399C33.2899 46.604 33.4718 46.632 33.6536 46.6223C34.3609 46.5848 35.055 46.4134 35.6999 46.1171L36.8671 45.6261V45.1066L35.503 44.5658V38.4677C35.503 37.2366 34.9264 36.0198 31.9871 36.0198C30.3303 36.1467 28.703 36.5332 27.1634 37.1655V39.2006L27.1071 39.1935ZM57.5544 32.0777H57.0903L53.0189 32.9743V33.6859L54.144 34.4828V45.1991L53.0119 45.7399V46.359H58.6794V45.7471L57.5473 45.2063V32.0635L57.5544 32.0777ZM45.3262 43.1142C45.3262 39.9548 40.5939 39.9762 40.5939 38.0692C40.5939 37.5284 40.9877 37.1797 41.726 37.1797C41.9082 37.1782 42.0891 37.2095 42.2604 37.2722L43.1745 38.8661H44.9465V36.582C43.8841 36.2369 42.7782 36.0476 41.6627 36.0198C39.4759 36.0198 37.6828 37.1441 37.6828 39.3429C37.6828 42.5023 42.4151 42.4809 42.4151 44.388C42.4181 44.5462 42.3868 44.7031 42.3233 44.8477C42.2598 44.9924 42.1657 45.1211 42.0477 45.2249C41.9297 45.3288 41.7906 45.4051 41.6403 45.4486C41.4899 45.4921 41.332 45.5017 41.1776 45.4767C40.9048 45.4818 40.6347 45.4208 40.39 45.2988L39.4759 43.6123H37.7109V45.8965C38.8026 46.3342 39.9616 46.575 41.1354 46.6081C43.3574 46.6081 45.3544 45.4624 45.3544 43.0858L45.3262 43.1142ZM23.8374 39.1935H26.0805V36.2902C25.7266 36.1209 25.3399 36.0334 24.9484 36.0341C24.0316 36.1526 23.1753 36.561 22.5014 37.201L21.8896 37.7134V36.0056H21.4185L16.9885 36.9093V37.6209L18.4793 38.0763V45.192L16.9885 45.7328V46.3519H23.5561V45.7471L21.8896 45.2063V38.5032C22.3339 38.3612 22.7908 38.2635 23.2538 38.2115L23.8374 39.1935ZM51.0008 36.0198H50.5367L46.4654 36.9235V37.6351L47.5975 38.425V45.192L46.4654 45.7328V46.3519H52.1329V45.7471L51.0008 45.2063V36.0198ZM8.70521 45.0213V39.6844H9.22555C11.4335 39.6844 12.0382 40.8443 12.0382 42.424C12.0382 44.2385 11.089 45.0213 9.40135 45.0213H8.70521ZM8.70521 33.7357H9.40838C10.8991 33.7357 11.6163 34.4473 11.6163 36.2191C11.6163 37.692 10.9132 38.5246 9.76699 38.5246H8.71224V33.7357H8.70521ZM47.3795 33.6289C47.3795 34.7176 47.9139 35.1731 49.3132 35.1731C50.7125 35.1731 51.268 34.7176 51.268 33.6289C51.268 32.5402 50.7125 32.0706 49.3132 32.0706C47.9139 32.0706 47.3795 32.5402 47.3795 33.6289ZM31.3965 44.5658C30.3417 44.5658 29.5331 44.2029 29.5331 43.1427C29.5331 42.488 29.8917 42.0326 30.8621 41.8761L32.0785 41.6769V44.4733C31.856 44.5333 31.6268 44.5643 31.3965 44.5658Z" fill="#11CE5C"/>
</svg>
