<svg width="119" height="110" viewBox="0 0 119 110" fill="none" xmlns="http://www.w3.org/2000/svg">
<circle cx="21" cy="84" r="21" fill="#9BDB52"/>
<circle cx="84" cy="35" r="35" fill="#9BDB52"/>
<circle cx="55" cy="55" r="55" fill="#5A44A0"/>
<path d="M59.25 59.25C56.8889 59.25 54.8819 58.4236 53.2292 56.7708C51.5764 55.1181 50.75 53.1111 50.75 50.75C50.75 48.3889 51.5764 46.382 53.2292 44.7292C54.8819 43.0764 56.8889 42.25 59.25 42.25C61.6111 42.25 63.6181 43.0764 65.2708 44.7292C66.9236 46.382 67.75 48.3889 67.75 50.75C67.75 53.1111 66.9236 55.1181 65.2708 56.7708C63.6181 58.4236 61.6111 59.25 59.25 59.25ZM36.5833 69.1667C35.4028 69.1667 34.3993 68.7535 33.5729 67.9271C32.7465 67.1007 32.3333 66.0972 32.3333 64.9167V36.5833C32.3333 35.4028 32.7465 34.3993 33.5729 33.5729C34.3993 32.7465 35.4028 32.3333 36.5833 32.3333H81.9167C83.0972 32.3333 84.1007 32.7465 84.9271 33.5729C85.7535 34.3993 86.1667 35.4028 86.1667 36.5833V64.9167C86.1667 66.0972 85.7535 67.1007 84.9271 67.9271C84.1007 68.7535 83.0972 69.1667 81.9167 69.1667H36.5833ZM43.6667 64.9167H74.8333C74.8333 62.9333 75.5181 61.257 76.8875 59.8875C78.2569 58.5181 79.9333 57.8333 81.9167 57.8333V43.6667C79.9333 43.6667 78.2569 42.982 76.8875 41.6125C75.5181 40.2431 74.8333 38.5667 74.8333 36.5833H43.6667C43.6667 38.5667 42.9819 40.2431 41.6125 41.6125C40.2431 42.982 38.5667 43.6667 36.5833 43.6667V57.8333C38.5667 57.8333 40.2431 58.5181 41.6125 59.8875C42.9819 61.257 43.6667 62.9333 43.6667 64.9167ZM77.6667 77.6667H28.0833C26.9028 77.6667 25.8993 77.2535 25.0729 76.4271C24.2465 75.6007 23.8333 74.5972 23.8333 73.4167V40.8333H28.0833V73.4167H77.6667V77.6667ZM36.5833 64.9167V36.5833V64.9167Z" fill="white"/>
</svg>
