<svg width="130" height="118" viewBox="0 0 130 118" fill="none" xmlns="http://www.w3.org/2000/svg">
<circle cx="21" cy="21" r="21" fill="#9BDB52"/>
<circle cx="95" cy="83" r="35" fill="#9BDB52"/>
<circle cx="61" cy="63" r="55" fill="#5A44A0"/>
<path d="M76.3854 92.1667C72.5938 92.1667 69.349 90.8177 66.651 88.1198C63.9531 85.4219 62.6042 82.1771 62.6042 78.3854C62.6042 74.5938 63.9531 71.349 66.651 68.6511C69.349 65.9531 72.5938 64.6042 76.3854 64.6042C80.1771 64.6042 83.4219 65.9531 86.1198 68.6511C88.8177 71.349 90.1667 74.5938 90.1667 78.3854C90.1667 82.1771 88.8177 85.4219 86.1198 88.1198C83.4219 90.8177 80.1771 92.1667 76.3854 92.1667ZM80.6146 85.75L82.6562 83.7083L77.1875 78.2396V70.0729H74.3438V79.2604L80.6146 85.75ZM39.125 88.2292C37.9097 88.2292 36.8767 87.8038 36.026 86.9531C35.1753 86.1024 34.75 85.0695 34.75 83.8542V41.4167C34.75 40.2014 35.1267 39.1684 35.8802 38.3177C36.6337 37.467 37.2778 37.0417 37.8125 37.0417H52.5417C52.8819 35.3403 53.7205 33.9427 55.0573 32.849C56.3941 31.7552 57.9375 31.2083 59.6875 31.2083C61.4375 31.2083 62.9809 31.7552 64.3177 32.849C65.6545 33.9427 66.4931 35.3403 66.8333 37.0417H81.5625C82.7778 37.0417 83.8108 37.467 84.6615 38.3177C85.5122 39.1684 85.9375 40.2014 85.9375 41.4167V62.9271C85.2083 62.4896 84.4913 62.1129 83.7865 61.7969C83.0816 61.4809 82.3403 61.2014 81.5625 60.9583V41.4167H73.8333V50.8958H46.8542V41.4167H39.125V83.8542H59.0312C59.2743 84.5833 59.566 85.3004 59.9062 86.0052C60.2465 86.7101 60.6597 87.4514 61.1458 88.2292H39.125ZM61 41.125C61.8264 41.125 62.5191 40.8455 63.0781 40.2865C63.6372 39.7274 63.9167 39.0347 63.9167 38.2083C63.9167 37.382 63.6372 36.6892 63.0781 36.1302C62.5191 35.5712 61.8264 35.2917 61 35.2917C60.1736 35.2917 59.4809 35.5712 58.9219 36.1302C58.3628 36.6892 58.0833 37.382 58.0833 38.2083C58.0833 39.0347 58.3628 39.7274 58.9219 40.2865C59.4809 40.8455 60.1736 41.125 61 41.125Z" fill="#FFF8F8"/>
</svg>
