<svg width="30" height="30" viewBox="0 0 30 30" fill="none" xmlns="http://www.w3.org/2000/svg">
<path d="M15 2.5C8.09625 2.5 2.5 8.09625 2.5 15C2.5 20.5544 6.12562 25.2569 11.1375 26.885H18.8625C23.8744 25.2569 27.5 20.5544 27.5 15C27.5 8.09625 21.9037 2.5 15 2.5Z" fill="white"/>
<path opacity="0.05" d="M18.7563 26.2476L18.75 22.6238C18.75 22.0369 18.6125 21.4638 18.3488 20.9444C21.8744 20.2363 23.59 18.1519 23.59 14.5838C23.59 13.1744 23.1744 11.9301 22.355 10.8838C22.4175 10.6857 22.4638 10.4807 22.4925 10.2707C22.61 9.41506 22.4781 8.85568 22.3719 8.40568L22.355 8.33318C22.2388 7.83568 22.0994 7.48068 22.0938 7.46568L22.0244 7.28943L21.955 7.11318L21.7663 7.09318L21.5769 7.07318C21.5769 7.07318 21.4525 7.06006 21.2638 7.06006C21.0019 7.06006 20.6138 7.08631 20.2469 7.21068L20.1244 7.25193C19.6619 7.40756 19.225 7.55506 18.6138 7.92006C18.435 8.02693 18.2394 8.14881 18.03 8.28506C17.0838 8.05068 16.0656 7.93131 15 7.93131C13.9238 7.93131 12.8969 8.05131 11.9444 8.28818C11.7325 8.15068 11.5356 8.02756 11.3556 7.92006C10.7444 7.55506 10.3075 7.40818 9.84501 7.25193L9.72251 7.21068C9.35689 7.08631 8.96814 7.06006 8.70626 7.06006C8.51751 7.06006 8.39314 7.07318 8.39314 7.07318L8.20439 7.09318L8.01689 7.11256L7.94689 7.28818L7.87626 7.46506C7.87001 7.48131 7.73064 7.83631 7.61439 8.33443L7.59751 8.40631C7.49126 8.85568 7.35939 9.41568 7.47689 10.2707C7.50689 10.4869 7.55501 10.6988 7.62064 10.9026C6.81751 11.9438 6.41064 13.1813 6.41064 14.5838C6.41064 18.1432 8.12814 20.2263 11.6588 20.9401C11.5375 21.1826 11.4431 21.4388 11.3763 21.7051C11.2531 21.7469 11.14 21.7751 11.04 21.7907C10.8913 21.8132 10.7356 21.8244 10.5781 21.8244C10.1494 21.8244 9.81251 21.7407 9.68126 21.6626C9.48564 21.5463 9.13626 21.2082 8.79751 20.7138C8.50814 20.2919 8.05689 19.7401 7.55251 19.5094C7.11626 19.3101 6.65439 19.1957 6.28439 19.1957C6.19814 19.1957 6.11876 19.2019 6.04939 19.2132C5.72626 19.2644 5.45626 19.4419 5.30939 19.7007C5.18251 19.9238 5.16251 20.1838 5.25439 20.4138C5.39126 20.7563 5.78626 21.0294 6.09376 21.1982C6.24501 21.2813 6.57189 21.5851 6.76251 21.8913C6.90564 22.1213 6.97189 22.2851 7.06376 22.5113C7.11814 22.6457 7.17814 22.7919 7.25939 22.9688C7.55314 23.6076 8.47001 24.1713 8.57376 24.2332C9.07751 24.5351 9.92439 24.6319 10.5469 24.6601L10.6238 24.6619H10.6244C10.7744 24.6619 10.9806 24.6476 11.2519 24.6176V26.2507C11.2531 26.5813 10.9163 26.6563 10.4706 26.6494L10.8125 26.7644C12.1219 27.2326 13.5281 27.5001 15 27.5001C16.4719 27.5001 17.8781 27.2326 19.1894 26.7651L19.6288 26.6013C19.1844 26.5863 18.76 26.5138 18.7563 26.2476Z" fill="black"/>
<path opacity="0.07" d="M19.2381 26.7482C18.9844 26.7776 18.4375 26.6801 18.4375 26.2513V22.6238C18.4375 21.9401 18.2325 21.2794 17.8525 20.7163C21.5494 20.1182 23.2769 18.1582 23.2769 14.5838C23.2769 13.1857 22.8481 11.9626 22.0025 10.9451C22.0881 10.7169 22.1481 10.4763 22.1825 10.2282C22.2919 9.43068 22.1725 8.92443 22.0675 8.47756L22.0506 8.40506C21.9394 7.92943 21.8081 7.59443 21.8025 7.58068L21.7331 7.40443L21.5437 7.38443C21.5437 7.38443 21.4325 7.37256 21.2631 7.37256C21.025 7.37256 20.6731 7.39568 20.3469 7.50693L20.2244 7.54818C19.7781 7.69881 19.3562 7.84068 18.7737 8.18818C18.5662 8.31193 18.335 8.45756 18.0856 8.62193C17.1275 8.37131 16.0906 8.24381 15 8.24381C13.8987 8.24381 12.8531 8.37193 11.8881 8.62506C11.6362 8.45943 11.4037 8.31318 11.195 8.18818C10.6125 7.84068 10.1906 7.69818 9.74437 7.54818L9.62187 7.50693C9.29624 7.39631 8.94374 7.37256 8.70562 7.37256C8.53624 7.37256 8.42499 7.38443 8.42499 7.38443L8.23624 7.40443L8.16562 7.58131C8.15999 7.59506 8.02874 7.93006 7.91749 8.40568L7.90062 8.47818C7.79499 8.92506 7.67562 9.43068 7.78562 10.2282C7.82062 10.4826 7.88312 10.7288 7.97187 10.9619C7.14249 11.9744 6.72249 13.1913 6.72249 14.5838C6.72249 18.1482 8.45124 20.1076 12.1512 20.7126C11.9044 21.0813 11.7319 21.4969 11.6431 21.9401C11.4369 22.0213 11.25 22.0751 11.0862 22.1001C10.9219 22.1251 10.7506 22.1376 10.5775 22.1376C10.1462 22.1376 9.73187 22.0569 9.52124 21.9319C9.24624 21.7688 8.86062 21.3607 8.53874 20.8913C8.31999 20.5726 7.88437 20.0057 7.42124 19.7944C7.02437 19.6132 6.60999 19.5088 6.28312 19.5088C6.21437 19.5088 6.15187 19.5138 6.09687 19.5226C5.86812 19.5588 5.67937 19.6801 5.57937 19.8563C5.49937 19.9963 5.48624 20.1582 5.54249 20.2988C5.65437 20.5788 6.06874 20.8301 6.24187 20.9251C6.45124 21.0401 6.81624 21.3901 7.02562 21.7276C7.18249 21.9801 7.25687 22.1632 7.35124 22.3944C7.40437 22.5251 7.46249 22.6676 7.54124 22.8394C7.74812 23.2888 8.38687 23.7594 8.73187 23.9663C9.20312 24.2488 10.0781 24.3276 10.5581 24.3488L10.6275 24.3501C10.8144 24.3501 11.1275 24.3219 11.5619 24.2657V26.2513C11.5619 26.7382 10.9425 26.7576 10.7906 26.7576C10.7712 26.7576 11.105 26.8726 11.105 26.8726C12.3319 27.2751 13.6387 27.5001 15 27.5001C16.3612 27.5001 17.6681 27.2751 18.8944 26.8732C18.8944 26.8732 19.2575 26.7457 19.2381 26.7482Z" fill="black"/>
<path d="M22.965 14.5838C22.965 13.14 22.4762 11.9425 21.6419 11.0038C21.7325 10.8006 21.8269 10.5281 21.8737 10.1856C21.9812 9.40439 21.8544 8.93564 21.7469 8.47689C21.6394 8.01814 21.5125 7.69564 21.5125 7.69564C21.5125 7.69564 20.9362 7.63689 20.4481 7.80314C19.96 7.96939 19.54 8.09626 18.9344 8.45751C18.6512 8.62626 18.3662 8.81126 18.1406 8.96126C17.1762 8.69376 16.1156 8.55626 15 8.55626C13.8744 8.55626 12.8044 8.69439 11.8331 8.96376C11.6069 8.81314 11.32 8.62689 11.035 8.45689C10.4294 8.09564 10.0094 7.96876 9.52124 7.80251C9.03312 7.63626 8.45687 7.69501 8.45687 7.69501C8.45687 7.69501 8.32999 8.01751 8.22249 8.47626C8.11499 8.93501 7.98812 9.40376 8.09562 10.185C8.14374 10.5363 8.24124 10.8138 8.33437 11.0181C7.51562 11.9513 7.03562 13.1413 7.03562 14.5831C7.03562 18.3225 9.05562 20.0294 12.7362 20.48C12.3069 20.9338 12.0187 21.515 11.9219 22.1619C11.68 22.2681 11.4012 22.3681 11.1331 22.4081C10.4431 22.5125 9.71374 22.4081 9.36249 22.2C9.01124 21.9919 8.59437 21.5231 8.28187 21.0669C8.01812 20.6819 7.63749 20.235 7.29249 20.0775C6.83687 19.8694 6.39374 19.7913 6.14687 19.83C5.89937 19.8694 5.78249 20.0513 5.83437 20.1819C5.88624 20.3119 6.13374 20.5075 6.39437 20.6506C6.65499 20.7938 7.05874 21.1844 7.29312 21.5619C7.55437 21.9831 7.60562 22.2263 7.82687 22.7075C7.98249 23.0463 8.51499 23.4694 8.89437 23.6969C9.21999 23.8925 9.87062 24.0038 10.5744 24.0356C10.8175 24.0469 11.3919 23.9756 11.8762 23.9069V26.2506C11.8762 26.65 11.5106 26.9538 11.1319 26.8838C12.3475 27.2925 13.6456 27.5 15 27.5C16.3537 27.5 17.6519 27.2925 18.8687 26.885C18.4906 26.9544 18.125 26.6506 18.125 26.2513V22.6238C18.125 21.7931 17.7956 21.0425 17.2669 20.4831C20.9206 20.0444 22.965 18.3781 22.965 14.5838ZM7.02437 20.4544C6.92812 20.405 6.87624 20.3138 6.90874 20.2494C6.94124 20.185 7.04624 20.1731 7.14249 20.2225C7.23874 20.2719 7.29062 20.3631 7.25812 20.4275C7.22562 20.4919 7.12062 20.5038 7.02437 20.4544ZM7.78187 20.9263C7.73124 20.9813 7.62249 20.9638 7.53874 20.8875C7.45499 20.8113 7.42812 20.7044 7.47874 20.6494C7.52937 20.5944 7.63812 20.6119 7.72187 20.6881C7.80562 20.7644 7.83249 20.8713 7.78187 20.9263ZM8.25312 21.7075C8.18937 21.7525 8.08124 21.7106 8.01187 21.6138C7.94249 21.5169 7.93812 21.4013 8.00187 21.3563C8.06562 21.3113 8.17374 21.3531 8.24312 21.45C8.31187 21.5469 8.31687 21.6625 8.25312 21.7075ZM8.92999 22.2956C8.88687 22.3656 8.76437 22.3688 8.65687 22.3031C8.54937 22.2375 8.49687 22.1275 8.53999 22.0575C8.58312 21.9875 8.70562 21.9844 8.81312 22.05C8.92062 22.1156 8.97312 22.2256 8.92999 22.2956ZM9.56999 22.8713C9.43687 22.855 9.33812 22.7719 9.34937 22.6856C9.35999 22.5994 9.47687 22.5431 9.60937 22.5594C9.74249 22.5756 9.84124 22.6588 9.82999 22.745C9.81937 22.8306 9.70312 22.8875 9.56999 22.8713ZM10.6019 23.0206C10.46 23.0125 10.3494 22.9313 10.355 22.84C10.3606 22.7488 10.48 22.6806 10.6219 22.6888C10.7637 22.6969 10.8744 22.7781 10.8687 22.8694C10.8631 22.9613 10.7437 23.0288 10.6019 23.0206ZM11.5756 22.9231C11.4244 22.9231 11.3019 22.8444 11.3019 22.7475C11.3019 22.6506 11.4244 22.5719 11.5756 22.5719C11.7269 22.5719 11.8494 22.6506 11.8494 22.7475C11.8494 22.8444 11.7262 22.9231 11.5756 22.9231Z" fill="#5A44A0"/>
</svg>
