<svg width="345" height="355" viewBox="0 0 345 355" fill="none" xmlns="http://www.w3.org/2000/svg">
<ellipse cx="74.5" cy="63" rx="62.5" ry="63" fill="#9BDB52"/>
<circle cx="241" cy="237" r="104" fill="#9BDB52"/>
<ellipse cx="164" cy="177.5" rx="164" ry="163.5" fill="#5A44A0"/>
<g clip-path="url(#clip0_209_16)">
<path d="M255.634 223.348C255.367 223.348 255.099 223.076 255.099 223.076L207.217 193.15C205.077 191.79 203.739 189.341 203.739 186.62C203.739 183.9 205.344 181.723 207.752 180.363C216.044 175.194 165.754 175.194 170.034 180.363C171.639 182.268 173.779 183.9 174.047 186.62C174.047 189.341 172.977 191.79 170.569 193.15L122.687 223.076C116.267 226.341 112.522 232.326 112.522 238.856V244.025H265.264V238.856C265.264 232.054 261.519 226.069 255.634 223.348Z" fill="#9BDB52"/>
<path d="M189.027 188.525C216.801 188.525 239.317 165.626 239.317 137.378C239.317 109.13 216.801 86.2308 189.027 86.2308C161.252 86.2308 138.737 109.13 138.737 137.378C138.737 165.626 161.252 188.525 189.027 188.525Z" fill="#9BDB52"/>
<path d="M209.113 237.851C208.845 237.851 208.577 237.579 208.577 237.579L160.695 207.653C158.555 206.292 157.217 203.844 157.217 201.123C157.217 198.403 158.822 196.226 161.23 194.866C169.522 189.697 119.232 189.697 123.513 194.866C125.118 196.77 127.257 198.403 127.525 201.123C127.525 203.844 126.455 206.292 124.048 207.653L76.165 237.579C69.745 240.572 66 246.557 66 253.087V258.256H218.742V253.087C218.742 246.557 214.997 240.572 209.113 237.851Z" fill="white"/>
<path d="M142.238 202.756C170.012 202.756 192.528 179.856 192.528 151.609C192.528 123.361 170.012 100.462 142.238 100.462C114.463 100.462 91.9475 123.361 91.9475 151.609C91.9475 179.856 114.463 202.756 142.238 202.756Z" fill="white"/>
</g>
<ellipse cx="88.5" cy="328" rx="26.5" ry="27" fill="#9BDB52"/>
<defs>
<clipPath id="clip0_209_16">
<rect width="214" height="185" fill="white" transform="translate(66 72)"/>
</clipPath>
</defs>
</svg>
