<svg width="128" height="110" viewBox="0 0 128 110" fill="none" xmlns="http://www.w3.org/2000/svg">
<circle cx="21" cy="37" r="21" fill="#9BDB52"/>
<circle cx="93" cy="58" r="35" fill="#9BDB52"/>
<circle cx="62" cy="55" r="55" fill="#5A44A0"/>
<g clip-path="url(#clip0_206_15)">
<path d="M53.0229 81.6729C50.9562 81.6729 49.1264 81.0594 47.5333 79.8323C45.9403 78.6052 44.8208 77.0229 44.175 75.0854C43.4861 76.2049 42.6465 77.0768 41.6562 77.7011C40.666 78.3254 39.4819 78.6375 38.1042 78.6375C36.0805 78.6375 34.4014 77.9271 33.0667 76.5063C31.7319 75.0854 31.0646 73.4063 31.0646 71.4688C31.0646 69.359 31.7212 67.6906 33.0344 66.4636C34.3476 65.2365 36.016 64.6014 38.0396 64.5583C37.2646 63.6972 36.6618 62.6962 36.2312 61.5552C35.8007 60.4143 35.5854 59.2625 35.5854 58.1C35.5854 56.4639 36.0052 54.9354 36.8448 53.5146C37.6844 52.0938 38.8792 50.9528 40.4292 50.0917C40.6444 50.6514 40.9135 51.2542 41.2364 51.9C41.5594 52.5458 41.893 53.1056 42.2375 53.5792C41.3764 54.1389 40.6983 54.8278 40.2031 55.6458C39.708 56.4639 39.4604 57.325 39.4604 58.2292C39.4604 60.8125 40.5045 62.4379 42.5927 63.1052C44.6809 63.7726 46.6937 64.3 48.6312 64.6875L49.3417 65.9146C48.825 67.4215 48.4052 68.6594 48.0823 69.6281C47.7594 70.5969 47.5979 71.4903 47.5979 72.3084C47.5979 73.7722 48.1469 75.0531 49.2448 76.1511C50.3427 77.249 51.6236 77.7979 53.0875 77.7979C54.8528 77.7979 56.3059 77.0552 57.4469 75.5698C58.5878 74.0844 59.5135 72.3191 60.224 70.274C60.9344 68.2288 61.4833 66.1622 61.8708 64.074C62.2583 61.9858 62.5812 60.3604 62.8396 59.1979L66.5854 60.2313C66.1979 62.0827 65.7458 64.2354 65.2292 66.6896C64.7125 69.1438 63.9698 71.4795 63.001 73.6969C62.0323 75.9143 60.7621 77.7979 59.1906 79.3479C57.6191 80.8979 55.5632 81.6729 53.0229 81.6729V81.6729ZM38.1687 74.7625C39.0729 74.7625 39.8371 74.4504 40.4614 73.8261C41.0858 73.2018 41.3979 72.4375 41.3979 71.5334C41.3979 70.6292 41.0858 69.865 40.4614 69.2406C39.8371 68.6163 39.0729 68.3042 38.1687 68.3042C37.2646 68.3042 36.5003 68.6163 35.876 69.2406C35.2517 69.865 34.9396 70.6292 34.9396 71.5334C34.9396 72.4375 35.2517 73.2018 35.876 73.8261C36.5003 74.4504 37.2646 74.7625 38.1687 74.7625ZM57.5437 62.4917C55.6062 60.7695 53.841 59.1656 52.2479 57.6802C50.6549 56.1948 49.2878 54.7417 48.1469 53.3208C47.0059 51.9 46.1233 50.5007 45.4989 49.1229C44.8746 47.7452 44.5625 46.2813 44.5625 44.7313C44.5625 42.1479 45.4667 39.9521 47.275 38.1438C49.0833 36.3354 51.2792 35.4313 53.8625 35.4313C54.25 35.4313 54.616 35.442 54.9604 35.4636C55.3049 35.4851 55.6493 35.5389 55.9937 35.625C55.6062 34.8931 55.3264 34.2688 55.1542 33.7521C54.9819 33.2354 54.8958 32.7188 54.8958 32.2021C54.8958 30.2215 55.5847 28.5424 56.9625 27.1646C58.3403 25.7868 60.0194 25.0979 62 25.0979C63.9805 25.0979 65.6597 25.7868 67.0375 27.1646C68.4153 28.5424 69.1042 30.2215 69.1042 32.2021C69.1042 32.6757 69.0288 33.1816 68.8781 33.7198C68.7274 34.258 68.4368 34.8931 68.0062 35.625C68.3507 35.5389 68.6951 35.4851 69.0396 35.4636C69.384 35.442 69.75 35.4313 70.1375 35.4313C72.5917 35.4313 74.6691 36.217 76.3698 37.7886C78.0705 39.3601 79.05 41.3083 79.3083 43.6333C78.7055 43.5903 78.0597 43.5795 77.3708 43.6011C76.6819 43.6226 76.0361 43.6764 75.4333 43.7625C75.218 42.4708 74.6368 41.4052 73.6896 40.5656C72.7424 39.7261 71.5583 39.3063 70.1375 39.3063C68.5444 39.3063 67.2851 39.7476 66.3594 40.6302C65.4337 41.5129 64.1958 42.8583 62.6458 44.6667H61.2896C59.6965 42.7722 58.4371 41.4052 57.5114 40.5656C56.5858 39.7261 55.3694 39.3063 53.8625 39.3063C52.3125 39.3063 51.0208 39.8229 49.9875 40.8563C48.9542 41.8896 48.4375 43.1813 48.4375 44.7313C48.4375 45.7646 48.7174 46.8195 49.2771 47.8958C49.8368 48.9722 50.6333 50.124 51.6667 51.3511C52.7 52.5781 53.9486 53.8698 55.4125 55.2261C56.8764 56.5823 58.5125 58.0785 60.3208 59.7146L57.5437 62.4917ZM62 35.4313C62.9042 35.4313 63.6684 35.1191 64.2927 34.4948C64.917 33.8705 65.2292 33.1063 65.2292 32.2021C65.2292 31.2979 64.917 30.5337 64.2927 29.9094C63.6684 29.2851 62.9042 28.9729 62 28.9729C61.0958 28.9729 60.3316 29.2851 59.7073 29.9094C59.083 30.5337 58.7708 31.2979 58.7708 32.2021C58.7708 33.1063 59.083 33.8705 59.7073 34.4948C60.3316 35.1191 61.0958 35.4313 62 35.4313ZM70.9125 81.7375C69.9653 81.7375 69.0288 81.5868 68.1031 81.2854C67.1774 80.984 66.284 80.532 65.4229 79.9292C65.7674 79.4125 66.1118 78.8313 66.4562 78.1854C66.8007 77.5396 67.0805 76.9368 67.2958 76.3771C67.8986 76.8507 68.5121 77.2059 69.1364 77.4427C69.7608 77.6795 70.3958 77.7979 71.0417 77.7979C72.5486 77.7979 73.8295 77.249 74.8844 76.1511C75.9392 75.0531 76.4667 73.7722 76.4667 72.3084C76.4667 71.4472 76.2944 70.5323 75.95 69.5636C75.6055 68.5948 75.1965 67.3785 74.7229 65.9146L75.4333 64.6875C77.4139 64.3431 79.4375 63.8372 81.5042 63.1698C83.5708 62.5024 84.6042 60.8771 84.6042 58.2938C84.6042 56.3993 83.9153 54.9893 82.5375 54.0636C81.1597 53.1379 79.6312 52.675 77.9521 52.675C76.1437 52.675 74.0017 53.0195 71.526 53.7083C69.0503 54.3972 66.1764 55.2799 62.9042 56.3563L61.9354 52.6104C65.2076 51.534 68.1569 50.6299 70.7833 49.8979C73.4097 49.166 75.7993 48.8 77.9521 48.8C80.7076 48.8 83.151 49.6288 85.2823 51.2865C87.4135 52.9441 88.4792 55.2583 88.4792 58.2292C88.4792 59.3917 88.2639 60.5327 87.8333 61.6521C87.4028 62.7715 86.8 63.7618 86.025 64.6229C88.0055 64.666 89.6632 65.3118 90.9979 66.5604C92.3326 67.809 93 69.4667 93 71.5334C93 73.4709 92.3326 75.15 90.9979 76.5709C89.6632 77.9917 87.984 78.7021 85.9604 78.7021C84.6257 78.7021 83.4417 78.39 82.4083 77.7656C81.375 77.1413 80.5354 76.2695 79.8896 75.15C79.2007 77.0875 78.0597 78.6698 76.4667 79.8969C74.8736 81.124 73.0222 81.7375 70.9125 81.7375V81.7375ZM85.9604 74.8271C86.8215 74.8271 87.5642 74.5149 88.1885 73.8906C88.8128 73.2663 89.125 72.5021 89.125 71.5979C89.125 70.7368 88.8021 69.9726 88.1562 69.3052C87.5104 68.6379 86.7569 68.3042 85.8958 68.3042C85.0347 68.3042 84.2812 68.6271 83.6354 69.2729C82.9896 69.9188 82.6667 70.6722 82.6667 71.5334C82.6667 72.3945 83.0003 73.1587 83.6677 73.8261C84.3351 74.4934 85.0993 74.8271 85.9604 74.8271V74.8271Z" fill="white"/>
</g>
<defs>
<clipPath id="clip0_206_15">
<rect width="62" height="62" fill="white" transform="translate(31 24)"/>
</clipPath>
</defs>
</svg>
