<svg width="82" height="71" viewBox="0 0 82 71" fill="none" xmlns="http://www.w3.org/2000/svg">
<g clip-path="url(#clip0_190_7420)">
<path d="M72.6635 58.085C72.5611 58.085 72.4585 57.9806 72.4585 57.9806L54.111 46.4953C53.291 45.9733 52.7785 45.0336 52.7785 43.9894C52.7785 42.9453 53.3935 42.11 54.316 41.588C57.4935 39.6041 38.2236 39.6041 39.8636 41.588C40.4786 42.3188 41.2986 42.9453 41.4011 43.9894C41.4011 45.0336 40.991 45.9733 40.0685 46.4953L21.7211 57.9806C19.2611 59.2336 17.826 61.5306 17.826 64.0365V66.0203H76.3535V64.0365C76.3535 61.4262 74.9185 59.1291 72.6635 58.085Z" fill="#9BDB52"/>
<path d="M47.1411 44.7202C57.7836 44.7202 66.4111 35.9319 66.4111 25.0908C66.4111 14.2498 57.7836 5.46143 47.1411 5.46143C36.4986 5.46143 27.8711 14.2498 27.8711 25.0908C27.8711 35.9319 36.4986 44.7202 47.1411 44.7202Z" fill="#9BDB52"/>
<path d="M54.8375 63.6509C54.735 63.6509 54.6325 63.5465 54.6325 63.5465L36.285 52.0612C35.465 51.5392 34.9525 50.5995 34.9525 49.5554C34.9525 48.5112 35.5675 47.6759 36.49 47.1539C39.6675 45.1701 20.3975 45.1701 22.0375 47.1539C22.6525 47.8848 23.4725 48.5112 23.575 49.5554C23.575 50.5995 23.165 51.5392 22.2425 52.0612L3.895 63.5465C1.435 64.6951 0 66.9921 0 69.498V71.4818H58.5275V69.498C58.5275 66.9921 57.0925 64.6951 54.8375 63.6509Z" fill="white"/>
<path d="M29.2125 50.1819C39.855 50.1819 48.4825 41.3935 48.4825 30.5525C48.4825 19.7115 39.855 10.9231 29.2125 10.9231C18.57 10.9231 9.9425 19.7115 9.9425 30.5525C9.9425 41.3935 18.57 50.1819 29.2125 50.1819Z" fill="white"/>
</g>
<defs>
<clipPath id="clip0_190_7420">
<rect width="82" height="71" fill="white"/>
</clipPath>
</defs>
</svg>
