<svg xmlns="http://www.w3.org/2000/svg" xmlns:xlink="http://www.w3.org/1999/xlink" id="Layer_1" data-name="Layer 1" viewBox="0 0 482 502"><defs><style>.cls-1{fill:url(#linear-gradient);}.cls-2{fill:url(#linear-gradient-2);}.cls-3{fill:url(#linear-gradient-3);}.cls-4{fill:url(#linear-gradient-4);}.cls-5{fill:url(#linear-gradient-5);}.cls-6{fill:url(#linear-gradient-6);}.cls-7{fill:url(#linear-gradient-7);}.cls-8{fill:url(#linear-gradient-8);}.cls-9{fill:url(#linear-gradient-9);}.cls-10{fill:url(#linear-gradient-10);}.cls-11{fill:url(#linear-gradient-11);}.cls-12{fill:url(#linear-gradient-12);}.cls-13{fill:url(#linear-gradient-13);}.cls-14{fill:url(#linear-gradient-14);}.cls-15{fill:url(#linear-gradient-15);}.cls-16{fill:url(#linear-gradient-16);}.cls-17{fill:url(#linear-gradient-17);}.cls-18{fill:url(#linear-gradient-18);}.cls-19{fill:url(#linear-gradient-19);}.cls-20{fill:url(#linear-gradient-20);}.cls-21{fill:url(#linear-gradient-21);}.cls-22{fill:url(#linear-gradient-22);}.cls-23{fill:url(#linear-gradient-23);}.cls-24{fill:#6751AD;}</style><linearGradient id="linear-gradient" x1="332.5" y1="26.97" x2="53.96" y2="413.07" gradientUnits="userSpaceOnUse"><stop offset="0" stop-color="#6751AD"></stop><stop offset="0.25" stop-color="#6751AD"></stop><stop offset="0.43" stop-color="#6751AD"></stop><stop offset="0.53" stop-color="#6751AD"></stop><stop offset="1" stop-color="#6751AD"></stop></linearGradient><linearGradient id="linear-gradient-2" x1="289.37" y1="-4.15" x2="10.82" y2="381.95" xlink:href="#linear-gradient"></linearGradient><linearGradient id="linear-gradient-3" x1="236.15" y1="-42.53" x2="-42.39" y2="343.56" xlink:href="#linear-gradient"></linearGradient><linearGradient id="linear-gradient-4" x1="326.88" y1="22.92" x2="48.34" y2="409.01" xlink:href="#linear-gradient"></linearGradient><linearGradient id="linear-gradient-5" x1="364.39" y1="49.98" x2="85.85" y2="436.08" xlink:href="#linear-gradient"></linearGradient><linearGradient id="linear-gradient-6" x1="381.75" y1="62.51" x2="103.21" y2="448.6" gradientTransform="translate(406.22 -189.16) rotate(79.1)" xlink:href="#linear-gradient"></linearGradient><linearGradient id="linear-gradient-7" x1="442.24" y1="106.14" x2="163.7" y2="492.24" xlink:href="#linear-gradient"></linearGradient><linearGradient id="linear-gradient-8" x1="235" y1="-43.37" x2="-43.54" y2="342.73" xlink:href="#linear-gradient"></linearGradient><linearGradient id="linear-gradient-9" x1="315.64" y1="14.81" x2="37.1" y2="400.91" xlink:href="#linear-gradient"></linearGradient><linearGradient id="linear-gradient-10" x1="466.86" y1="123.9" x2="188.32" y2="510" xlink:href="#linear-gradient"></linearGradient><linearGradient id="linear-gradient-11" x1="353.16" y1="41.88" x2="74.62" y2="427.98" xlink:href="#linear-gradient"></linearGradient><linearGradient id="linear-gradient-12" x1="438.27" y1="103.28" x2="159.73" y2="489.38" xlink:href="#linear-gradient"></linearGradient><linearGradient id="linear-gradient-13" x1="475.79" y1="130.34" x2="197.25" y2="516.44" xlink:href="#linear-gradient"></linearGradient><linearGradient id="linear-gradient-14" x1="389.53" y1="68.11" x2="110.99" y2="454.21" xlink:href="#linear-gradient"></linearGradient><linearGradient id="linear-gradient-15" x1="510.5" y1="155.39" x2="231.96" y2="541.48" xlink:href="#linear-gradient"></linearGradient><linearGradient id="linear-gradient-16" x1="427.04" y1="95.18" x2="148.5" y2="481.27" xlink:href="#linear-gradient"></linearGradient><linearGradient id="linear-gradient-17" x1="467.37" y1="124.27" x2="188.82" y2="510.36" xlink:href="#linear-gradient"></linearGradient><linearGradient id="linear-gradient-18" x1="494.8" y1="144.06" x2="216.26" y2="530.16" xlink:href="#linear-gradient"></linearGradient><linearGradient id="linear-gradient-19" x1="514.96" y1="158.6" x2="236.42" y2="544.7" xlink:href="#linear-gradient"></linearGradient><linearGradient id="linear-gradient-20" x1="446.05" y1="108.89" x2="167.51" y2="494.99" xlink:href="#linear-gradient"></linearGradient><linearGradient id="linear-gradient-21" x1="486.37" y1="137.98" x2="207.83" y2="524.08" xlink:href="#linear-gradient"></linearGradient><linearGradient id="linear-gradient-22" x1="480.76" y1="133.93" x2="202.22" y2="520.03" xlink:href="#linear-gradient"></linearGradient><linearGradient id="linear-gradient-23" x1="489.69" y1="140.37" x2="211.15" y2="526.47" xlink:href="#linear-gradient"></linearGradient></defs><title>cobertura</title><circle class="cls-1" cx="286.98" cy="90.06" r="5.42"></circle><circle class="cls-2" cx="210.34" cy="105.39" r="5.42"></circle><circle class="cls-3" cx="118.38" cy="120.71" r="5.42"></circle><circle class="cls-4" cx="256.33" cy="120.71" r="5.42"></circle><circle class="cls-5" cx="302.31" cy="136.04" r="5.42"></circle><circle class="cls-6" cx="317.64" cy="151.37" r="5.42" transform="translate(108.93 434.66) rotate(-79.1)"></circle><circle class="cls-7" cx="409.6" cy="151.37" r="5.42"></circle><circle class="cls-8" cx="72.4" cy="182.02" r="5.42"></circle><circle class="cls-9" cx="195.01" cy="182.02" r="5.42"></circle><circle class="cls-10" cx="424.93" cy="182.02" r="5.42"></circle><circle class="cls-11" cx="241" cy="197.35" r="5.42"></circle><circle class="cls-12" cx="348.29" cy="228.01" r="5.42"></circle><circle class="cls-13" cx="394.27" cy="243.33" r="5.42"></circle><circle class="cls-14" cx="241" cy="273.99" r="5.42"></circle><circle class="cls-15" cx="424.93" cy="273.99" r="5.42"></circle><circle class="cls-16" cx="286.98" cy="289.32" r="5.42"></circle><circle class="cls-17" cx="348.29" cy="289.32" r="5.42"></circle><circle class="cls-18" cx="378.95" cy="304.65" r="5.42"></circle><circle class="cls-19" cx="409.6" cy="304.65" r="5.42"></circle><circle class="cls-20" cx="271.66" cy="350.63" r="5.42"></circle><circle class="cls-21" cx="332.97" cy="350.63" r="5.42"></circle><circle class="cls-22" cx="302.31" cy="381.29" r="5.42"></circle><circle class="cls-23" cx="271.66" cy="442.6" r="5.42"></circle><circle class="cls-24" cx="271.66" cy="13.42" r="5.42"></circle><circle class="cls-24" cx="149.03" cy="28.75" r="5.42" transform="translate(96.79 171.25) rotate(-80.78)"></circle><circle class="cls-24" cx="149.03" cy="13.42" r="5.42"></circle><circle class="cls-24" cx="133.7" cy="28.75" r="5.42"></circle><circle class="cls-24" cx="118.38" cy="28.75" r="5.42"></circle><circle class="cls-24" cx="164.36" cy="28.75" r="5.42"></circle><circle class="cls-24" cx="271.66" cy="28.75" r="5.42"></circle><circle class="cls-24" cx="286.98" cy="28.75" r="5.42"></circle><circle class="cls-24" cx="149.03" cy="44.08" r="5.42" transform="translate(81.65 184.13) rotate(-80.78)"></circle><circle class="cls-24" cx="133.7" cy="44.08" r="5.42"></circle><circle class="cls-24" cx="164.36" cy="44.08" r="5.42"></circle><circle class="cls-24" cx="271.66" cy="44.08" r="5.42"></circle><circle class="cls-24" cx="256.33" cy="44.08" r="5.42"></circle><circle class="cls-24" cx="286.98" cy="44.08" r="5.42"></circle><circle class="cls-24" cx="302.31" cy="44.08" r="5.42"></circle><circle class="cls-24" cx="72.4" cy="59.41" r="5.42"></circle><circle class="cls-24" cx="87.72" cy="59.41" r="5.42"></circle><circle class="cls-24" cx="103.05" cy="59.41" r="5.42"></circle><circle class="cls-24" cx="133.7" cy="59.41" r="5.42"></circle><circle class="cls-24" cx="149.03" cy="59.41" r="5.42" transform="translate(66.52 197) rotate(-80.78)"></circle><circle class="cls-24" cx="164.36" cy="59.41" r="5.42"></circle><circle class="cls-24" cx="179.69" cy="59.41" r="5.42"></circle><circle class="cls-24" cx="195.01" cy="59.41" r="5.42"></circle><circle class="cls-24" cx="210.34" cy="59.41" r="5.42"></circle><circle class="cls-24" cx="225.67" cy="59.41" r="5.42"></circle><circle class="cls-24" cx="225.67" cy="44.08" r="5.42"></circle><circle class="cls-24" cx="241" cy="44.08" r="5.42"></circle><circle class="cls-24" cx="241" cy="59.41" r="5.42"></circle><circle class="cls-24" cx="256.33" cy="59.41" r="5.42"></circle><circle class="cls-24" cx="271.66" cy="59.41" r="5.42"></circle><circle class="cls-24" cx="286.98" cy="59.41" r="5.42"></circle><circle class="cls-24" cx="57.07" cy="74.73" r="5.42"></circle><circle class="cls-24" cx="72.4" cy="74.73" r="5.42"></circle><circle class="cls-24" cx="87.72" cy="74.73" r="5.42"></circle><circle class="cls-24" cx="103.05" cy="74.73" r="5.42"></circle><circle class="cls-24" cx="118.38" cy="74.73" r="5.42"></circle><circle class="cls-24" cx="133.7" cy="74.73" r="5.42"></circle><circle class="cls-24" cx="149.03" cy="74.73" r="5.42" transform="translate(51.39 209.87) rotate(-80.78)"></circle><circle class="cls-24" cx="164.36" cy="74.73" r="5.42"></circle><circle class="cls-24" cx="179.69" cy="74.73" r="5.42"></circle><circle class="cls-24" cx="195.01" cy="74.73" r="5.42"></circle><circle class="cls-24" cx="210.34" cy="74.73" r="5.42"></circle><circle class="cls-24" cx="225.67" cy="74.73" r="5.42"></circle><circle class="cls-24" cx="241" cy="74.73" r="5.42"></circle><circle class="cls-24" cx="256.33" cy="74.73" r="5.42"></circle><circle class="cls-24" cx="271.66" cy="74.73" r="5.42"></circle><circle class="cls-24" cx="286.98" cy="74.73" r="5.42"></circle><circle class="cls-24" cx="302.31" cy="74.73" r="5.42"></circle><circle class="cls-24" cx="72.4" cy="90.06" r="5.42"></circle><circle class="cls-24" cx="87.72" cy="90.06" r="5.42"></circle><circle class="cls-24" cx="103.05" cy="90.06" r="5.42"></circle><circle class="cls-24" cx="118.38" cy="90.06" r="5.42"></circle><circle class="cls-24" cx="133.7" cy="90.06" r="5.42"></circle><circle class="cls-24" cx="149.03" cy="90.06" r="5.42" transform="translate(36.26 222.75) rotate(-80.78)"></circle><circle class="cls-24" cx="164.36" cy="90.06" r="5.42"></circle><circle class="cls-24" cx="179.69" cy="90.06" r="5.42"></circle><circle class="cls-24" cx="195.01" cy="90.06" r="5.42"></circle><circle class="cls-24" cx="210.34" cy="90.06" r="5.42"></circle><circle class="cls-24" cx="225.67" cy="90.06" r="5.42"></circle><circle class="cls-24" cx="241" cy="90.06" r="5.42"></circle><circle class="cls-24" cx="256.33" cy="90.06" r="5.42"></circle><circle class="cls-24" cx="271.66" cy="90.06" r="5.42"></circle><circle class="cls-24" cx="302.31" cy="90.06" r="5.42"></circle><circle class="cls-24" cx="317.64" cy="90.06" r="5.42"></circle><circle class="cls-24" cx="332.97" cy="90.06" r="5.42"></circle><circle class="cls-24" cx="348.29" cy="90.06" r="5.42"></circle><circle class="cls-24" cx="72.4" cy="105.39" r="5.42"></circle><circle class="cls-24" cx="87.72" cy="105.39" r="5.42"></circle><circle class="cls-24" cx="103.05" cy="105.39" r="5.42"></circle><circle class="cls-24" cx="118.38" cy="105.39" r="5.42"></circle><circle class="cls-24" cx="133.7" cy="105.39" r="5.42"></circle><circle class="cls-24" cx="149.03" cy="105.39" r="5.42" transform="translate(21.13 235.62) rotate(-80.78)"></circle><circle class="cls-24" cx="164.36" cy="105.39" r="5.42"></circle><circle class="cls-24" cx="179.69" cy="105.39" r="5.42"></circle><circle class="cls-24" cx="195.01" cy="105.39" r="5.42"></circle><circle class="cls-24" cx="225.67" cy="105.39" r="5.42"></circle><circle class="cls-24" cx="241" cy="105.39" r="5.42"></circle><circle class="cls-24" cx="256.33" cy="105.39" r="5.42"></circle><circle class="cls-24" cx="271.66" cy="105.39" r="5.42"></circle><circle class="cls-24" cx="286.98" cy="105.39" r="5.42"></circle><circle class="cls-24" cx="302.31" cy="105.39" r="5.42"></circle><circle class="cls-24" cx="317.64" cy="105.39" r="5.42"></circle><circle class="cls-24" cx="332.97" cy="105.39" r="5.42"></circle><circle class="cls-24" cx="348.29" cy="105.39" r="5.42"></circle><circle class="cls-24" cx="363.63" cy="105.39" r="5.42"></circle><circle class="cls-24" cx="378.95" cy="105.39" r="5.42"></circle><circle class="cls-24" cx="72.4" cy="120.71" r="5.42"></circle><circle class="cls-24" cx="57.07" cy="120.71" r="5.42"></circle><circle class="cls-24" cx="87.72" cy="120.71" r="5.42"></circle><circle class="cls-24" cx="103.05" cy="120.71" r="5.42"></circle><circle class="cls-24" cx="133.7" cy="120.71" r="5.42"></circle><circle class="cls-24" cx="149.03" cy="120.71" r="5.42" transform="translate(6.01 248.49) rotate(-80.78)"></circle><circle class="cls-24" cx="164.36" cy="120.71" r="5.42"></circle><circle class="cls-24" cx="179.69" cy="120.71" r="5.42"></circle><circle class="cls-24" cx="195.01" cy="120.71" r="5.42"></circle><circle class="cls-24" cx="210.34" cy="120.71" r="5.42"></circle><circle class="cls-24" cx="225.67" cy="120.71" r="5.42"></circle><circle class="cls-24" cx="241" cy="120.71" r="5.42"></circle><circle class="cls-24" cx="271.66" cy="120.71" r="5.42"></circle><circle class="cls-24" cx="286.98" cy="120.71" r="5.42"></circle><circle class="cls-24" cx="302.31" cy="120.71" r="5.42"></circle><circle class="cls-24" cx="317.64" cy="120.71" r="5.42"></circle><circle class="cls-24" cx="332.97" cy="120.71" r="5.42"></circle><circle class="cls-24" cx="348.29" cy="120.71" r="5.42"></circle><circle class="cls-24" cx="363.63" cy="120.71" r="5.42"></circle><circle class="cls-24" cx="378.95" cy="120.71" r="5.42"></circle><circle class="cls-24" cx="394.27" cy="120.71" r="5.42"></circle><circle class="cls-24" cx="409.6" cy="120.71" r="5.42"></circle><circle class="cls-24" cx="424.93" cy="120.71" r="5.42"></circle><circle class="cls-24" cx="57.07" cy="136.04" r="5.42"></circle><circle class="cls-24" cx="72.4" cy="136.04" r="5.42"></circle><circle class="cls-24" cx="87.72" cy="136.04" r="5.42"></circle><circle class="cls-24" cx="103.05" cy="136.04" r="5.42"></circle><circle class="cls-24" cx="118.38" cy="136.04" r="5.42"></circle><circle class="cls-24" cx="133.7" cy="136.04" r="5.42"></circle><circle class="cls-24" cx="149.03" cy="136.04" r="5.42" transform="translate(-9.13 261.36) rotate(-80.78)"></circle><circle class="cls-24" cx="164.36" cy="136.04" r="5.42"></circle><circle class="cls-24" cx="179.69" cy="136.04" r="5.42"></circle><circle class="cls-24" cx="195.01" cy="136.04" r="5.42"></circle><circle class="cls-24" cx="210.34" cy="136.04" r="5.42"></circle><circle class="cls-24" cx="225.67" cy="136.04" r="5.42"></circle><circle class="cls-24" cx="241" cy="136.04" r="5.42"></circle><circle class="cls-24" cx="256.33" cy="136.04" r="5.42"></circle><circle class="cls-24" cx="271.66" cy="136.04" r="5.42"></circle><circle class="cls-24" cx="286.98" cy="136.04" r="5.42"></circle><circle class="cls-24" cx="317.64" cy="136.04" r="5.42"></circle><circle class="cls-24" cx="332.97" cy="136.04" r="5.42"></circle><circle class="cls-24" cx="348.29" cy="136.04" r="5.42"></circle><circle class="cls-24" cx="363.63" cy="136.04" r="5.42"></circle><circle class="cls-24" cx="378.95" cy="136.04" r="5.42"></circle><circle class="cls-24" cx="394.27" cy="136.04" r="5.42"></circle><circle class="cls-24" cx="409.6" cy="136.04" r="5.42"></circle><circle class="cls-24" cx="424.93" cy="136.04" r="5.42"></circle><circle class="cls-24" cx="440.26" cy="136.04" r="5.42"></circle><circle class="cls-24" cx="455.59" cy="136.04" r="5.42"></circle><circle class="cls-24" cx="26.42" cy="151.37" r="5.42"></circle><circle class="cls-24" cx="41.74" cy="151.37" r="5.42"></circle><circle class="cls-24" cx="57.07" cy="151.37" r="5.42"></circle><circle class="cls-24" cx="72.4" cy="151.37" r="5.42"></circle><circle class="cls-24" cx="87.72" cy="151.37" r="5.42"></circle><circle class="cls-24" cx="103.05" cy="151.37" r="5.42"></circle><circle class="cls-24" cx="118.38" cy="151.37" r="5.42"></circle><circle class="cls-24" cx="133.7" cy="151.37" r="5.42"></circle><circle class="cls-24" cx="149.03" cy="151.37" r="5.42"></circle><circle class="cls-24" cx="164.36" cy="151.37" r="5.42"></circle><circle class="cls-24" cx="179.69" cy="151.37" r="5.42"></circle><circle class="cls-24" cx="195.01" cy="151.37" r="5.42"></circle><circle class="cls-24" cx="210.34" cy="151.37" r="5.42"></circle><circle class="cls-24" cx="225.67" cy="151.37" r="5.42"></circle><circle class="cls-24" cx="241" cy="151.37" r="5.42"></circle><circle class="cls-24" cx="256.33" cy="151.37" r="5.42"></circle><circle class="cls-24" cx="271.66" cy="151.37" r="5.42"></circle><circle class="cls-24" cx="286.98" cy="151.37" r="5.42"></circle><circle class="cls-24" cx="302.31" cy="151.37" r="5.42"></circle><circle class="cls-24" cx="332.97" cy="151.37" r="5.42"></circle><circle class="cls-24" cx="348.29" cy="151.37" r="5.42"></circle><circle class="cls-24" cx="363.63" cy="151.37" r="5.42"></circle><circle class="cls-24" cx="378.95" cy="151.37" r="5.42"></circle><circle class="cls-24" cx="394.27" cy="151.37" r="5.42"></circle><circle class="cls-24" cx="424.93" cy="151.37" r="5.42"></circle><circle class="cls-24" cx="440.26" cy="151.37" r="5.42"></circle><circle class="cls-24" cx="455.59" cy="151.37" r="5.42"></circle><circle class="cls-24" cx="470.91" cy="151.37" r="5.42"></circle><circle class="cls-24" cx="11.09" cy="166.7" r="5.42"></circle><circle class="cls-24" cx="26.42" cy="166.7" r="5.42"></circle><circle class="cls-24" cx="41.74" cy="166.7" r="5.42"></circle><circle class="cls-24" cx="57.07" cy="166.7" r="5.42"></circle><circle class="cls-24" cx="72.4" cy="166.7" r="5.42"></circle><circle class="cls-24" cx="87.72" cy="166.7" r="5.42"></circle><circle class="cls-24" cx="103.05" cy="166.7" r="5.42"></circle><circle class="cls-24" cx="118.38" cy="166.7" r="5.42"></circle><circle class="cls-24" cx="133.7" cy="166.7" r="5.42"></circle><circle class="cls-24" cx="149.03" cy="166.7" r="5.42"></circle><circle class="cls-24" cx="164.36" cy="166.7" r="5.42"></circle><circle class="cls-24" cx="179.69" cy="166.7" r="5.42"></circle><circle class="cls-24" cx="195.01" cy="166.7" r="5.42"></circle><circle class="cls-24" cx="210.34" cy="166.7" r="5.42"></circle><circle class="cls-24" cx="225.67" cy="166.7" r="5.42"></circle><circle class="cls-24" cx="241" cy="166.7" r="5.42"></circle><circle class="cls-24" cx="256.33" cy="166.7" r="5.42"></circle><circle class="cls-24" cx="271.66" cy="166.7" r="5.42"></circle><circle class="cls-24" cx="286.98" cy="166.7" r="5.42"></circle><circle class="cls-24" cx="302.31" cy="166.7" r="5.42"></circle><circle class="cls-24" cx="317.64" cy="166.7" r="5.42"></circle><circle class="cls-24" cx="332.97" cy="166.7" r="5.42"></circle><circle class="cls-24" cx="348.29" cy="166.7" r="5.42"></circle><circle class="cls-24" cx="363.63" cy="166.7" r="5.42"></circle><circle class="cls-24" cx="378.95" cy="166.7" r="5.42"></circle><circle class="cls-24" cx="394.27" cy="166.7" r="5.42"></circle><circle class="cls-24" cx="409.6" cy="166.7" r="5.42"></circle><circle class="cls-24" cx="424.93" cy="166.7" r="5.42"></circle><circle class="cls-24" cx="440.26" cy="166.7" r="5.42"></circle><circle class="cls-24" cx="455.59" cy="166.7" r="5.42"></circle><circle class="cls-24" cx="470.91" cy="166.7" r="5.42"></circle><circle class="cls-24" cx="11.09" cy="182.02" r="5.42"></circle><circle class="cls-24" cx="26.42" cy="182.02" r="5.42"></circle><circle class="cls-24" cx="41.74" cy="182.02" r="5.42"></circle><circle class="cls-24" cx="57.07" cy="182.02" r="5.42"></circle><circle class="cls-24" cx="87.72" cy="182.02" r="5.42"></circle><circle class="cls-24" cx="103.05" cy="182.02" r="5.42"></circle><circle class="cls-24" cx="118.38" cy="182.02" r="5.42"></circle><circle class="cls-24" cx="133.7" cy="182.02" r="5.42"></circle><circle class="cls-24" cx="149.03" cy="182.02" r="5.42"></circle><circle class="cls-24" cx="164.36" cy="182.02" r="5.42"></circle><circle class="cls-24" cx="179.69" cy="182.02" r="5.42"></circle><circle class="cls-24" cx="210.34" cy="182.02" r="5.42"></circle><circle class="cls-24" cx="225.67" cy="182.02" r="5.42"></circle><circle class="cls-24" cx="241" cy="182.02" r="5.42"></circle><circle class="cls-24" cx="256.33" cy="182.02" r="5.42"></circle><circle class="cls-24" cx="271.66" cy="182.02" r="5.42"></circle><circle class="cls-24" cx="286.98" cy="182.02" r="5.42"></circle><circle class="cls-24" cx="302.31" cy="182.02" r="5.42"></circle><circle class="cls-24" cx="317.64" cy="182.02" r="5.42" transform="translate(87.09 466.41) rotate(-80.78)"></circle><circle class="cls-24" cx="332.97" cy="182.02" r="5.42"></circle><circle class="cls-24" cx="348.29" cy="182.02" r="5.42"></circle><circle class="cls-24" cx="363.63" cy="182.02" r="5.42"></circle><circle class="cls-24" cx="378.95" cy="182.02" r="5.42"></circle><circle class="cls-24" cx="394.27" cy="182.02" r="5.42"></circle><circle class="cls-24" cx="409.6" cy="182.02" r="5.42"></circle><circle class="cls-24" cx="440.26" cy="182.02" r="5.42"></circle><circle class="cls-24" cx="455.59" cy="182.02" r="5.42"></circle><circle class="cls-24" cx="470.91" cy="182.02" r="5.42"></circle><circle class="cls-24" cx="26.42" cy="197.35" r="5.42"></circle><circle class="cls-24" cx="41.74" cy="197.35" r="5.42"></circle><circle class="cls-24" cx="57.07" cy="197.35" r="5.42"></circle><circle class="cls-24" cx="72.4" cy="197.35" r="5.42"></circle><circle class="cls-24" cx="87.72" cy="197.35" r="5.42"></circle><circle class="cls-24" cx="103.05" cy="197.35" r="5.42"></circle><circle class="cls-24" cx="118.38" cy="197.35" r="5.42"></circle><circle class="cls-24" cx="133.7" cy="197.35" r="5.42"></circle><circle class="cls-24" cx="149.03" cy="197.35" r="5.42"></circle><circle class="cls-24" cx="164.36" cy="197.35" r="5.42"></circle><circle class="cls-24" cx="179.69" cy="197.35" r="5.42"></circle><circle class="cls-24" cx="195.01" cy="197.35" r="5.42"></circle><circle class="cls-24" cx="210.34" cy="197.35" r="5.42"></circle><circle class="cls-24" cx="225.67" cy="197.35" r="5.42"></circle><circle class="cls-24" cx="256.33" cy="197.35" r="5.42"></circle><circle class="cls-24" cx="271.66" cy="197.35" r="5.42"></circle><circle class="cls-24" cx="286.98" cy="197.35" r="5.42"></circle><circle class="cls-24" cx="302.31" cy="197.35" r="5.42"></circle><circle class="cls-24" cx="317.64" cy="197.35" r="5.42"></circle><circle class="cls-24" cx="332.97" cy="197.35" r="5.42"></circle><circle class="cls-24" cx="348.29" cy="197.35" r="5.42"></circle><circle class="cls-24" cx="363.63" cy="197.35" r="5.42"></circle><circle class="cls-24" cx="378.95" cy="197.35" r="5.42"></circle><circle class="cls-24" cx="394.27" cy="197.35" r="5.42"></circle><circle class="cls-24" cx="409.6" cy="197.35" r="5.42"></circle><circle class="cls-24" cx="424.93" cy="197.35" r="5.42"></circle><circle class="cls-24" cx="440.26" cy="197.35" r="5.42"></circle><circle class="cls-24" cx="455.59" cy="197.35" r="5.42"></circle><circle class="cls-24" cx="57.07" cy="212.68" r="5.42"></circle><circle class="cls-24" cx="72.4" cy="212.68" r="5.42"></circle><circle class="cls-24" cx="87.72" cy="212.68" r="5.42"></circle><circle class="cls-24" cx="118.38" cy="212.68" r="5.42"></circle><circle class="cls-24" cx="133.7" cy="212.68" r="5.42"></circle><circle class="cls-24" cx="149.03" cy="212.68" r="5.42"></circle><circle class="cls-24" cx="164.36" cy="212.68" r="5.42"></circle><circle class="cls-24" cx="179.69" cy="212.68" r="5.42"></circle><circle class="cls-24" cx="195.01" cy="212.68" r="5.42"></circle><circle class="cls-24" cx="210.34" cy="212.68" r="5.42"></circle><circle class="cls-24" cx="225.67" cy="212.68" r="5.42"></circle><circle class="cls-24" cx="241" cy="212.68" r="5.42"></circle><circle class="cls-24" cx="256.33" cy="212.68" r="5.42"></circle><circle class="cls-24" cx="271.66" cy="212.68" r="5.42"></circle><circle class="cls-24" cx="286.98" cy="212.68" r="5.42"></circle><circle class="cls-24" cx="302.31" cy="212.68" r="5.42"></circle><circle class="cls-24" cx="317.64" cy="212.68" r="5.42"></circle><circle class="cls-24" cx="332.97" cy="212.68" r="5.42"></circle><circle class="cls-24" cx="348.29" cy="212.68" r="5.42"></circle><circle class="cls-24" cx="363.63" cy="212.68" r="5.42"></circle><circle class="cls-24" cx="378.95" cy="212.68" r="5.42"></circle><circle class="cls-24" cx="394.27" cy="212.68" r="5.42"></circle><circle class="cls-24" cx="409.6" cy="212.68" r="5.42"></circle><circle class="cls-24" cx="424.93" cy="212.68" r="5.42"></circle><circle class="cls-24" cx="440.26" cy="212.68" r="5.42"></circle><circle class="cls-24" cx="455.59" cy="212.68" r="5.42"></circle><circle class="cls-24" cx="118.38" cy="228.01" r="5.42"></circle><circle class="cls-24" cx="133.7" cy="228.01" r="5.42"></circle><circle class="cls-24" cx="149.03" cy="228.01" r="5.42"></circle><circle class="cls-24" cx="164.36" cy="228.01" r="5.42"></circle><circle class="cls-24" cx="179.69" cy="228.01" r="5.42"></circle><circle class="cls-24" cx="195.01" cy="228.01" r="5.42"></circle><circle class="cls-24" cx="210.34" cy="228.01" r="5.42"></circle><circle class="cls-24" cx="225.67" cy="228.01" r="5.42"></circle><circle class="cls-24" cx="241" cy="228.01" r="5.42"></circle><circle class="cls-24" cx="256.33" cy="228.01" r="5.42"></circle><circle class="cls-24" cx="271.66" cy="228.01" r="5.42"></circle><circle class="cls-24" cx="286.98" cy="228.01" r="5.42"></circle><circle class="cls-24" cx="302.31" cy="228.01" r="5.42"></circle><circle class="cls-24" cx="317.64" cy="228.01" r="5.42"></circle><circle class="cls-24" cx="332.97" cy="228.01" r="5.42"></circle><circle class="cls-24" cx="363.63" cy="228.01" r="5.42"></circle><circle class="cls-24" cx="378.95" cy="228.01" r="5.42"></circle><circle class="cls-24" cx="394.27" cy="228.01" r="5.42"></circle><circle class="cls-24" cx="409.6" cy="228.01" r="5.42"></circle><circle class="cls-24" cx="424.93" cy="228.01" r="5.42"></circle><circle class="cls-24" cx="440.26" cy="228.01" r="5.42"></circle><circle class="cls-24" cx="149.03" cy="243.33" r="5.42"></circle><circle class="cls-24" cx="164.36" cy="243.33" r="5.42"></circle><circle class="cls-24" cx="179.69" cy="243.33" r="5.42"></circle><circle class="cls-24" cx="195.01" cy="243.33" r="5.42"></circle><circle class="cls-24" cx="210.34" cy="243.33" r="5.42"></circle><circle class="cls-24" cx="225.67" cy="243.33" r="5.42"></circle><circle class="cls-24" cx="241" cy="243.33" r="5.42"></circle><circle class="cls-24" cx="256.33" cy="243.33" r="5.42"></circle><circle class="cls-24" cx="271.66" cy="243.33" r="5.42"></circle><circle class="cls-24" cx="286.98" cy="243.33" r="5.42"></circle><circle class="cls-24" cx="302.31" cy="243.33" r="5.42"></circle><circle class="cls-24" cx="317.64" cy="243.33" r="5.42" transform="translate(26.57 517.9) rotate(-80.78)"></circle><circle class="cls-24" cx="332.97" cy="243.33" r="5.42"></circle><circle class="cls-24" cx="348.29" cy="243.33" r="5.42"></circle><circle class="cls-24" cx="363.63" cy="243.33" r="5.42"></circle><circle class="cls-24" cx="378.95" cy="243.33" r="5.42"></circle><circle class="cls-24" cx="409.6" cy="243.33" r="5.42"></circle><circle class="cls-24" cx="424.93" cy="243.33" r="5.42"></circle><circle class="cls-24" cx="179.69" cy="258.67" r="5.42"></circle><circle class="cls-24" cx="195.01" cy="258.67" r="5.42"></circle><circle class="cls-24" cx="210.34" cy="258.67" r="5.42"></circle><circle class="cls-24" cx="225.67" cy="258.67" r="5.42"></circle><circle class="cls-24" cx="241" cy="258.67" r="5.42"></circle><circle class="cls-24" cx="256.33" cy="258.67" r="5.42"></circle><circle class="cls-24" cx="271.66" cy="258.67" r="5.42"></circle><circle class="cls-24" cx="286.98" cy="258.67" r="5.42"></circle><circle class="cls-24" cx="302.31" cy="258.67" r="5.42"></circle><circle class="cls-24" cx="317.64" cy="258.67" r="5.42" transform="translate(11.44 530.77) rotate(-80.78)"></circle><circle class="cls-24" cx="332.97" cy="258.67" r="5.42"></circle><circle class="cls-24" cx="348.29" cy="258.67" r="5.42"></circle><circle class="cls-24" cx="363.63" cy="258.67" r="5.42"></circle><circle class="cls-24" cx="378.95" cy="258.67" r="5.42"></circle><circle class="cls-24" cx="394.27" cy="258.67" r="5.42"></circle><circle class="cls-24" cx="409.6" cy="258.67" r="5.42"></circle><circle class="cls-24" cx="424.93" cy="258.67" r="5.42"></circle><circle class="cls-24" cx="179.69" cy="273.99" r="5.42"></circle><circle class="cls-24" cx="195.01" cy="273.99" r="5.42"></circle><circle class="cls-24" cx="210.34" cy="273.99" r="5.42"></circle><circle class="cls-24" cx="225.67" cy="273.99" r="5.42"></circle><circle class="cls-24" cx="256.33" cy="273.99" r="5.42"></circle><circle class="cls-24" cx="271.66" cy="273.99" r="5.42"></circle><circle class="cls-24" cx="286.98" cy="273.99" r="5.42"></circle><circle class="cls-24" cx="302.31" cy="273.99" r="5.42"></circle><circle class="cls-24" cx="317.64" cy="273.99" r="5.42" transform="translate(-3.69 543.64) rotate(-80.78)"></circle><circle class="cls-24" cx="332.97" cy="273.99" r="5.42"></circle><circle class="cls-24" cx="348.29" cy="273.99" r="5.42"></circle><circle class="cls-24" cx="363.63" cy="273.99" r="5.42"></circle><circle class="cls-24" cx="378.95" cy="273.99" r="5.42"></circle><circle class="cls-24" cx="394.27" cy="273.99" r="5.42"></circle><circle class="cls-24" cx="409.6" cy="273.99" r="5.42"></circle><circle class="cls-24" cx="195.01" cy="289.32" r="5.42"></circle><circle class="cls-24" cx="210.34" cy="289.32" r="5.42"></circle><circle class="cls-24" cx="225.67" cy="289.32" r="5.42"></circle><circle class="cls-24" cx="241" cy="289.32" r="5.42"></circle><circle class="cls-24" cx="256.33" cy="289.32" r="5.42"></circle><circle class="cls-24" cx="271.66" cy="289.32" r="5.42"></circle><circle class="cls-24" cx="302.31" cy="289.32" r="5.42"></circle><circle class="cls-24" cx="317.64" cy="289.32" r="5.42"></circle><circle class="cls-24" cx="332.97" cy="289.32" r="5.42"></circle><circle class="cls-24" cx="363.63" cy="289.32" r="5.42"></circle><circle class="cls-24" cx="378.95" cy="289.32" r="5.42"></circle><circle class="cls-24" cx="394.27" cy="289.32" r="5.42"></circle><circle class="cls-24" cx="409.6" cy="289.32" r="5.42"></circle><circle class="cls-24" cx="424.93" cy="289.32" r="5.42"></circle><circle class="cls-24" cx="195.01" cy="304.65" r="5.42"></circle><circle class="cls-24" cx="210.34" cy="304.65" r="5.42"></circle><circle class="cls-24" cx="225.67" cy="304.65" r="5.42"></circle><circle class="cls-24" cx="241" cy="304.65" r="5.42"></circle><circle class="cls-24" cx="256.33" cy="304.65" r="5.42"></circle><circle class="cls-24" cx="271.66" cy="304.65" r="5.42"></circle><circle class="cls-24" cx="286.98" cy="304.65" r="5.42"></circle><circle class="cls-24" cx="302.31" cy="304.65" r="5.42"></circle><circle class="cls-24" cx="317.64" cy="304.65" r="5.42" transform="translate(-33.95 569.39) rotate(-80.78)"></circle><circle class="cls-24" cx="332.97" cy="304.65" r="5.42"></circle><circle class="cls-24" cx="348.29" cy="304.65" r="5.42"></circle><circle class="cls-24" cx="363.63" cy="304.65" r="5.42"></circle><circle class="cls-24" cx="394.27" cy="304.65" r="5.42"></circle><circle class="cls-24" cx="195.01" cy="319.98" r="5.42"></circle><circle class="cls-24" cx="210.34" cy="319.98" r="5.42"></circle><circle class="cls-24" cx="225.67" cy="319.98" r="5.42"></circle><circle class="cls-24" cx="241" cy="319.98" r="5.42"></circle><circle class="cls-24" cx="256.33" cy="319.98" r="5.42"></circle><circle class="cls-24" cx="271.66" cy="319.98" r="5.42"></circle><circle class="cls-24" cx="286.98" cy="319.98" r="5.42"></circle><circle class="cls-24" cx="302.31" cy="319.98" r="5.42"></circle><circle class="cls-24" cx="317.64" cy="319.98" r="5.42"></circle><circle class="cls-24" cx="332.97" cy="319.98" r="5.42"></circle><circle class="cls-24" cx="348.29" cy="319.98" r="5.42"></circle><circle class="cls-24" cx="363.63" cy="319.98" r="5.42"></circle><circle class="cls-24" cx="378.95" cy="319.98" r="5.42"></circle><circle class="cls-24" cx="394.27" cy="319.98" r="5.42"></circle><circle class="cls-24" cx="409.6" cy="319.98" r="5.42"></circle><circle class="cls-24" cx="195.01" cy="335.3" r="5.42"></circle><circle class="cls-24" cx="210.34" cy="335.3" r="5.42"></circle><circle class="cls-24" cx="225.67" cy="335.3" r="5.42"></circle><circle class="cls-24" cx="241" cy="335.3" r="5.42"></circle><circle class="cls-24" cx="256.33" cy="335.3" r="5.42"></circle><circle class="cls-24" cx="271.66" cy="335.3" r="5.42"></circle><circle class="cls-24" cx="286.98" cy="335.3" r="5.42"></circle><circle class="cls-24" cx="302.31" cy="335.3" r="5.42"></circle><circle class="cls-24" cx="317.64" cy="335.3" r="5.42"></circle><circle class="cls-24" cx="332.97" cy="335.3" r="5.42"></circle><circle class="cls-24" cx="348.29" cy="335.3" r="5.42"></circle><circle class="cls-24" cx="363.63" cy="335.3" r="5.42"></circle><circle class="cls-24" cx="378.95" cy="335.3" r="5.42"></circle><circle class="cls-24" cx="394.27" cy="335.3" r="5.42"></circle><circle class="cls-24" cx="195.01" cy="350.63" r="5.42"></circle><circle class="cls-24" cx="210.34" cy="350.63" r="5.42"></circle><circle class="cls-24" cx="225.67" cy="350.63" r="5.42"></circle><circle class="cls-24" cx="241" cy="350.63" r="5.42"></circle><circle class="cls-24" cx="256.33" cy="350.63" r="5.42"></circle><circle class="cls-24" cx="286.98" cy="350.63" r="5.42"></circle><circle class="cls-24" cx="302.31" cy="350.63" r="5.42"></circle><circle class="cls-24" cx="317.64" cy="350.63" r="5.42"></circle><circle class="cls-24" cx="348.29" cy="350.63" r="5.42"></circle><circle class="cls-24" cx="363.63" cy="350.63" r="5.42"></circle><circle class="cls-24" cx="378.95" cy="350.63" r="5.42"></circle><circle class="cls-24" cx="394.27" cy="350.63" r="5.42"></circle><circle class="cls-24" cx="225.67" cy="365.96" r="5.42"></circle><circle class="cls-24" cx="241" cy="365.96" r="5.42"></circle><circle class="cls-24" cx="256.33" cy="365.96" r="5.42"></circle><circle class="cls-24" cx="271.66" cy="365.96" r="5.42"></circle><circle class="cls-24" cx="286.98" cy="365.96" r="5.42"></circle><circle class="cls-24" cx="302.31" cy="365.96" r="5.42"></circle><circle class="cls-24" cx="317.64" cy="365.96" r="5.42"></circle><circle class="cls-24" cx="332.97" cy="365.96" r="5.42"></circle><circle class="cls-24" cx="348.29" cy="365.96" r="5.42"></circle><circle class="cls-24" cx="241" cy="381.29" r="5.42"></circle><circle class="cls-24" cx="256.33" cy="381.29" r="5.42"></circle><circle class="cls-24" cx="271.66" cy="381.29" r="5.42"></circle><circle class="cls-24" cx="286.98" cy="381.29" r="5.42"></circle><circle class="cls-24" cx="317.64" cy="381.29" r="5.42"></circle><circle class="cls-24" cx="241" cy="396.61" r="5.42"></circle><circle class="cls-24" cx="256.33" cy="396.61" r="5.42"></circle><circle class="cls-24" cx="271.66" cy="396.61" r="5.42"></circle><circle class="cls-24" cx="286.98" cy="396.61" r="5.42"></circle><circle class="cls-24" cx="302.31" cy="396.61" r="5.42"></circle><circle class="cls-24" cx="317.64" cy="396.61" r="5.42"></circle><circle class="cls-24" cx="225.67" cy="411.94" r="5.42"></circle><circle class="cls-24" cx="241" cy="411.94" r="5.42"></circle><circle class="cls-24" cx="256.33" cy="411.94" r="5.42"></circle><circle class="cls-24" cx="271.66" cy="411.94" r="5.42"></circle><circle class="cls-24" cx="286.98" cy="411.94" r="5.42"></circle><circle class="cls-24" cx="302.31" cy="411.94" r="5.42"></circle><circle class="cls-24" cx="317.64" cy="411.94" r="5.42"></circle><circle class="cls-24" cx="210.34" cy="427.27" r="5.42"></circle><circle class="cls-24" cx="225.67" cy="427.27" r="5.42"></circle><circle class="cls-24" cx="241" cy="427.27" r="5.42"></circle><circle class="cls-24" cx="256.33" cy="427.27" r="5.42"></circle><circle class="cls-24" cx="271.66" cy="427.27" r="5.42"></circle><circle class="cls-24" cx="286.98" cy="427.27" r="5.42"></circle><circle class="cls-24" cx="302.31" cy="427.27" r="5.42"></circle><circle class="cls-24" cx="210.34" cy="442.6" r="5.42"></circle><circle class="cls-24" cx="225.67" cy="442.6" r="5.42"></circle><circle class="cls-24" cx="241" cy="442.6" r="5.42"></circle><circle class="cls-24" cx="256.33" cy="442.6" r="5.42"></circle><circle class="cls-24" cx="286.98" cy="442.6" r="5.42"></circle><circle class="cls-24" cx="225.67" cy="457.92" r="5.42"></circle><circle class="cls-24" cx="241" cy="457.92" r="5.42"></circle><circle class="cls-24" cx="256.33" cy="457.92" r="5.42"></circle><circle class="cls-24" cx="271.66" cy="457.92" r="5.42"></circle><circle class="cls-24" cx="286.98" cy="457.92" r="5.42"></circle><circle class="cls-24" cx="256.33" cy="473.25" r="5.42"></circle><circle class="cls-24" cx="271.66" cy="473.25" r="5.42"></circle><circle class="cls-24" cx="256.33" cy="488.58" r="5.42"></circle></svg> 