<svg width="180" height="33" viewBox="0 0 180 33" fill="none" xmlns="http://www.w3.org/2000/svg">
<path d="M51.2074 28.0909V13.0909H54.1903V14.9233H54.3253C54.4579 14.6297 54.6496 14.3314 54.9006 14.0284C55.1563 13.7206 55.4877 13.465 55.8949 13.2614C56.3068 13.053 56.8182 12.9489 57.429 12.9489C58.2244 12.9489 58.9583 13.1572 59.6307 13.5739C60.303 13.9858 60.8404 14.6084 61.2429 15.4418C61.6454 16.2704 61.8466 17.3097 61.8466 18.5597C61.8466 19.7765 61.6501 20.804 61.2571 21.642C60.8688 22.4754 60.3385 23.1075 59.6662 23.5384C58.9986 23.9645 58.2505 24.1776 57.4219 24.1776C56.8348 24.1776 56.3352 24.0805 55.9233 23.8864C55.5161 23.6922 55.1823 23.4484 54.9219 23.1548C54.6615 22.8565 54.4626 22.5559 54.3253 22.2528H54.233V28.0909H51.2074ZM54.169 18.5455C54.169 19.1941 54.259 19.7599 54.4389 20.2429C54.6188 20.7259 54.8793 21.1023 55.2202 21.3722C55.5611 21.6373 55.9754 21.7699 56.4631 21.7699C56.9555 21.7699 57.3722 21.6349 57.7131 21.3651C58.054 21.0904 58.312 20.7116 58.4872 20.2287C58.6671 19.741 58.7571 19.1799 58.7571 18.5455C58.7571 17.9157 58.6695 17.3617 58.4943 16.8835C58.3191 16.4053 58.0611 16.0312 57.7202 15.7614C57.3793 15.4915 56.9602 15.3565 56.4631 15.3565C55.9706 15.3565 55.554 15.4867 55.2131 15.7472C54.8769 16.0076 54.6188 16.3769 54.4389 16.8551C54.259 17.3333 54.169 17.8968 54.169 18.5455ZM68.8352 24.2131C67.7131 24.2131 66.7472 23.9858 65.9375 23.5312C65.1326 23.072 64.5123 22.4233 64.0767 21.5852C63.6411 20.7424 63.4233 19.7457 63.4233 18.5952C63.4233 17.473 63.6411 16.4882 64.0767 15.6406C64.5123 14.7931 65.1255 14.1326 65.9162 13.6591C66.7116 13.1856 67.6444 12.9489 68.7145 12.9489C69.4342 12.9489 70.1042 13.0649 70.7244 13.2969C71.3494 13.5241 71.8939 13.8674 72.358 14.3267C72.8267 14.786 73.1913 15.3636 73.4517 16.0597C73.7121 16.7509 73.8423 17.5606 73.8423 18.4886V19.3196H64.6307V17.4446H70.9943C70.9943 17.009 70.8996 16.6231 70.7102 16.2869C70.5208 15.9508 70.258 15.688 69.9219 15.4986C69.5904 15.3045 69.2045 15.2074 68.7642 15.2074C68.3049 15.2074 67.8977 15.3139 67.5426 15.527C67.1922 15.7353 66.9176 16.017 66.7188 16.3722C66.5199 16.7225 66.4181 17.1132 66.4134 17.544V19.3267C66.4134 19.8665 66.5128 20.3329 66.7116 20.7259C66.9152 21.1188 67.2017 21.4219 67.571 21.6349C67.9403 21.848 68.3783 21.9545 68.8849 21.9545C69.2211 21.9545 69.5289 21.9072 69.8082 21.8125C70.0876 21.7178 70.3267 21.5758 70.5256 21.3864C70.7244 21.197 70.8759 20.965 70.9801 20.6903L73.7784 20.875C73.6364 21.5473 73.3452 22.1345 72.9048 22.6364C72.4692 23.1335 71.9058 23.5218 71.2145 23.8011C70.5279 24.0758 69.7348 24.2131 68.8352 24.2131ZM75.8168 24V13.0909H78.75V14.9943H78.8636C79.0625 14.3172 79.3963 13.8059 79.8651 13.4602C80.3338 13.1098 80.8736 12.9347 81.4844 12.9347C81.6359 12.9347 81.7992 12.9441 81.9744 12.9631C82.1496 12.982 82.3035 13.008 82.4361 13.0412V15.7259C82.294 15.6832 82.0975 15.6454 81.8466 15.6122C81.5956 15.5791 81.366 15.5625 81.1577 15.5625C80.7126 15.5625 80.3149 15.6596 79.9645 15.8537C79.6188 16.0431 79.3442 16.3082 79.1406 16.6491C78.9418 16.9901 78.8423 17.383 78.8423 17.8281V24H75.8168ZM90.4137 13.0909V15.3636H83.6808V13.0909H90.4137ZM85.2219 24V12.3026C85.2219 11.5118 85.3758 10.8561 85.6836 10.3352C85.9961 9.81439 86.4222 9.42377 86.962 9.16335C87.5018 8.90293 88.1149 8.77273 88.8015 8.77273C89.2655 8.77273 89.6893 8.80824 90.0728 8.87926C90.4611 8.95028 90.7499 9.0142 90.9393 9.07102L90.3995 11.3438C90.2811 11.3059 90.1344 11.2704 89.9592 11.2372C89.7887 11.2041 89.6135 11.1875 89.4336 11.1875C88.9885 11.1875 88.6784 11.2917 88.5032 11.5C88.328 11.7036 88.2404 11.9901 88.2404 12.3594V24H85.2219ZM92.2621 24V13.0909H95.2876V24H92.2621ZM93.782 11.6847C93.3321 11.6847 92.9463 11.5355 92.6243 11.2372C92.3071 10.9342 92.1484 10.572 92.1484 10.1506C92.1484 9.7339 92.3071 9.37642 92.6243 9.07812C92.9463 8.77509 93.3321 8.62358 93.782 8.62358C94.2318 8.62358 94.6153 8.77509 94.9325 9.07812C95.2545 9.37642 95.4155 9.7339 95.4155 10.1506C95.4155 10.572 95.2545 10.9342 94.9325 11.2372C94.6153 11.5355 94.2318 11.6847 93.782 11.6847ZM100.737 9.45455V24H97.7113V9.45455H100.737ZM107.789 28.0909V13.0909H110.772V14.9233H110.907C111.04 14.6297 111.232 14.3314 111.483 14.0284C111.738 13.7206 112.07 13.465 112.477 13.2614C112.889 13.053 113.4 12.9489 114.011 12.9489C114.806 12.9489 115.54 13.1572 116.213 13.5739C116.885 13.9858 117.422 14.6084 117.825 15.4418C118.227 16.2704 118.429 17.3097 118.429 18.5597C118.429 19.7765 118.232 20.804 117.839 21.642C117.451 22.4754 116.921 23.1075 116.248 23.5384C115.581 23.9645 114.833 24.1776 114.004 24.1776C113.417 24.1776 112.917 24.0805 112.505 23.8864C112.098 23.6922 111.764 23.4484 111.504 23.1548C111.243 22.8565 111.045 22.5559 110.907 22.2528H110.815V28.0909H107.789ZM110.751 18.5455C110.751 19.1941 110.841 19.7599 111.021 20.2429C111.201 20.7259 111.461 21.1023 111.802 21.3722C112.143 21.6373 112.557 21.7699 113.045 21.7699C113.538 21.7699 113.954 21.6349 114.295 21.3651C114.636 21.0904 114.894 20.7116 115.069 20.2287C115.249 19.741 115.339 19.1799 115.339 18.5455C115.339 17.9157 115.252 17.3617 115.076 16.8835C114.901 16.4053 114.643 16.0312 114.302 15.7614C113.961 15.4915 113.542 15.3565 113.045 15.3565C112.553 15.3565 112.136 15.4867 111.795 15.7472C111.459 16.0076 111.201 16.3769 111.021 16.8551C110.841 17.3333 110.751 17.8968 110.751 18.5455ZM125.375 24.2131C124.271 24.2131 123.317 23.9787 122.512 23.5099C121.712 23.0365 121.094 22.3783 120.659 21.5355C120.223 20.688 120.005 19.7055 120.005 18.5881C120.005 17.4612 120.223 16.4763 120.659 15.6335C121.094 14.786 121.712 14.1278 122.512 13.6591C123.317 13.1856 124.271 12.9489 125.375 12.9489C126.478 12.9489 127.43 13.1856 128.23 13.6591C129.035 14.1278 129.655 14.786 130.091 15.6335C130.526 16.4763 130.744 17.4612 130.744 18.5881C130.744 19.7055 130.526 20.688 130.091 21.5355C129.655 22.3783 129.035 23.0365 128.23 23.5099C127.43 23.9787 126.478 24.2131 125.375 24.2131ZM125.389 21.8693C125.891 21.8693 126.31 21.7273 126.646 21.4432C126.982 21.1544 127.235 20.7614 127.406 20.2642C127.581 19.767 127.669 19.2012 127.669 18.5668C127.669 17.9323 127.581 17.3665 127.406 16.8693C127.235 16.3722 126.982 15.9792 126.646 15.6903C126.31 15.4015 125.891 15.2571 125.389 15.2571C124.882 15.2571 124.456 15.4015 124.11 15.6903C123.77 15.9792 123.511 16.3722 123.336 16.8693C123.166 17.3665 123.081 17.9323 123.081 18.5668C123.081 19.2012 123.166 19.767 123.336 20.2642C123.511 20.7614 123.77 21.1544 124.11 21.4432C124.456 21.7273 124.882 21.8693 125.389 21.8693ZM135.737 9.45455V24H132.711V9.45455H135.737ZM138.161 24V13.0909H141.186V24H138.161ZM138.594 11.6847L140.099 8.45312H142.898L140.732 11.6847H138.594ZM149.412 13.0909V15.3636H142.843V13.0909H149.412ZM144.334 10.4773H147.36V20.6477C147.36 20.9271 147.402 21.1449 147.488 21.3011C147.573 21.4527 147.691 21.5592 147.843 21.6207C147.999 21.6823 148.179 21.7131 148.382 21.7131C148.525 21.7131 148.667 21.7012 148.809 21.6776C148.951 21.6491 149.06 21.6278 149.135 21.6136L149.611 23.8651C149.46 23.9124 149.247 23.9669 148.972 24.0284C148.697 24.0947 148.364 24.1349 147.971 24.1491C147.241 24.1776 146.602 24.0805 146.053 23.858C145.508 23.6354 145.085 23.2898 144.782 22.821C144.479 22.3523 144.329 21.7604 144.334 21.0455V10.4773ZM151.383 24V13.0909H154.409V24H151.383ZM152.903 11.6847C152.453 11.6847 152.067 11.5355 151.745 11.2372C151.428 10.9342 151.27 10.572 151.27 10.1506C151.27 9.7339 151.428 9.37642 151.745 9.07812C152.067 8.77509 152.453 8.62358 152.903 8.62358C153.353 8.62358 153.736 8.77509 154.054 9.07812C154.376 9.37642 154.537 9.7339 154.537 10.1506C154.537 10.572 154.376 10.9342 154.054 11.2372C153.736 11.5355 153.353 11.6847 152.903 11.6847ZM161.761 24.2131C160.644 24.2131 159.683 23.9763 158.878 23.5028C158.078 23.0246 157.462 22.3617 157.031 21.5142C156.605 20.6667 156.392 19.6913 156.392 18.5881C156.392 17.4706 156.607 16.4905 157.038 15.6477C157.474 14.8002 158.092 14.1397 158.892 13.6662C159.692 13.188 160.644 12.9489 161.747 12.9489C162.699 12.9489 163.532 13.1217 164.247 13.4673C164.962 13.813 165.528 14.2983 165.945 14.9233C166.361 15.5483 166.591 16.2822 166.634 17.125H163.778C163.698 16.5805 163.485 16.1425 163.139 15.8111C162.798 15.4749 162.351 15.3068 161.797 15.3068C161.328 15.3068 160.919 15.4347 160.568 15.6903C160.223 15.9413 159.953 16.3082 159.759 16.7912C159.564 17.2741 159.467 17.8589 159.467 18.5455C159.467 19.2415 159.562 19.8333 159.751 20.321C159.946 20.8087 160.218 21.1804 160.568 21.4361C160.919 21.6918 161.328 21.8196 161.797 21.8196C162.143 21.8196 162.453 21.7486 162.727 21.6065C163.007 21.4645 163.236 21.2585 163.416 20.9886C163.601 20.714 163.722 20.3849 163.778 20.0014H166.634C166.586 20.8348 166.359 21.5687 165.952 22.2031C165.549 22.8329 164.993 23.3253 164.283 23.6804C163.572 24.0355 162.732 24.2131 161.761 24.2131ZM173.5 24.2131C172.396 24.2131 171.442 23.9787 170.637 23.5099C169.837 23.0365 169.219 22.3783 168.784 21.5355C168.348 20.688 168.13 19.7055 168.13 18.5881C168.13 17.4612 168.348 16.4763 168.784 15.6335C169.219 14.786 169.837 14.1278 170.637 13.6591C171.442 13.1856 172.396 12.9489 173.5 12.9489C174.603 12.9489 175.555 13.1856 176.355 13.6591C177.16 14.1278 177.78 14.786 178.216 15.6335C178.651 16.4763 178.869 17.4612 178.869 18.5881C178.869 19.7055 178.651 20.688 178.216 21.5355C177.78 22.3783 177.16 23.0365 176.355 23.5099C175.555 23.9787 174.603 24.2131 173.5 24.2131ZM173.514 21.8693C174.016 21.8693 174.435 21.7273 174.771 21.4432C175.107 21.1544 175.36 20.7614 175.531 20.2642C175.706 19.767 175.794 19.2012 175.794 18.5668C175.794 17.9323 175.706 17.3665 175.531 16.8693C175.36 16.3722 175.107 15.9792 174.771 15.6903C174.435 15.4015 174.016 15.2571 173.514 15.2571C173.007 15.2571 172.581 15.4015 172.235 15.6903C171.895 15.9792 171.636 16.3722 171.461 16.8693C171.291 17.3665 171.206 17.9323 171.206 18.5668C171.206 19.2012 171.291 19.767 171.461 20.2642C171.636 20.7614 171.895 21.1544 172.235 21.4432C172.581 21.7273 173.007 21.8693 173.514 21.8693Z" fill="white"/>
<g clip-path="url(#clip0_138_77)">
<path d="M33.6734 26.9973C33.6259 26.9973 33.5784 26.9488 33.5784 26.9488L25.0759 21.6105C24.6959 21.3679 24.4584 20.9311 24.4584 20.4458C24.4584 19.9605 24.7434 19.5723 25.1709 19.3296C26.6434 18.4076 17.7134 18.4076 18.4734 19.3296C18.7584 19.6693 19.1384 19.9605 19.1859 20.4458C19.1859 20.9311 18.9959 21.3679 18.5684 21.6105L10.0659 26.9488C8.92587 27.5311 8.26087 28.5988 8.26087 29.7635V30.6855H35.3834V29.7635C35.3834 28.5502 34.7184 27.4826 33.6734 26.9973Z" fill="#9BDB52"/>
<path d="M21.8459 20.7855C26.7778 20.7855 30.7759 16.7008 30.7759 11.662C30.7759 6.6232 26.7778 2.53845 21.8459 2.53845C16.914 2.53845 12.9159 6.6232 12.9159 11.662C12.9159 16.7008 16.914 20.7855 21.8459 20.7855Z" fill="#9BDB52"/>
<path d="M25.4125 29.5843C25.365 29.5843 25.3175 29.5358 25.3175 29.5358L16.815 24.1975C16.435 23.9549 16.1975 23.5181 16.1975 23.0328C16.1975 22.5475 16.4825 22.1593 16.91 21.9166C18.3825 20.9946 9.4525 20.9946 10.2125 21.9166C10.4975 22.2563 10.8775 22.5475 10.925 23.0328C10.925 23.5181 10.735 23.9549 10.3075 24.1975L1.805 29.5358C0.665 30.0696 0 31.1372 0 32.3019V33.224H27.1225V32.3019C27.1225 31.1372 26.4575 30.0696 25.4125 29.5843Z" fill="white"/>
<path d="M13.5375 23.324C18.4694 23.324 22.4675 19.2393 22.4675 14.2005C22.4675 9.16168 18.4694 5.07693 13.5375 5.07693C8.6056 5.07693 4.6075 9.16168 4.6075 14.2005C4.6075 19.2393 8.6056 23.324 13.5375 23.324Z" fill="white"/>
</g>
<defs>
<clipPath id="clip0_138_77">
<rect width="38" height="33" fill="white"/>
</clipPath>
</defs>
</svg>
